<svg height="512pt" viewBox="-33 0 512 512.00101" width="512pt" xmlns="http://www.w3.org/2000/svg"><path d="m177.625 341.464844c-31.265625-16.042969-51.320312-46.890625-53.484375-81.566406 16.765625-4.53125 29.140625-19.867188 29.140625-38.042969 0-21.730469-17.675781-39.40625-39.40625-39.40625s-39.40625 17.675781-39.40625 39.40625c0 18.316406 12.5625 33.757812 29.527344 38.152343 2.222656 42.21875 26.453125 79.875 64.441406 99.367188 1.46875.753906 3.039062 1.109375 4.585938 1.109375 3.652343 0 7.179687-1.996094 8.960937-5.472656 2.535156-4.945313.585937-11.007813-4.359375-13.546875zm-83.027344-119.609375c0-10.632813 8.648438-19.28125 19.277344-19.28125s19.277344 8.652343 19.277344 19.28125c0 10.628906-8.648438 19.277343-19.277344 19.277343s-19.277344-8.648437-19.277344-19.277343zm0 0"/><path d="m341.175781 260.007812c16.964844-4.394531 29.53125-19.832031 29.53125-38.152343 0-21.730469-17.679687-39.40625-39.40625-39.40625-21.730469 0-39.40625 17.675781-39.40625 39.40625 0 18.175781 12.371094 33.507812 29.132813 38.039062-2.125 33.335938-21.089844 63.605469-50.53125 79.996094-4.859375 2.703125-6.605469 8.832031-3.898438 13.6875 1.839844 3.308594 5.265625 5.171875 8.800782 5.171875 1.65625 0 3.335937-.410156 4.886718-1.273438 35.785156-19.921874 58.703125-56.878906 60.890625-97.46875zm-29.15625-38.152343c0-10.632813 8.652344-19.28125 19.28125-19.28125 10.628907 0 19.277344 8.652343 19.277344 19.28125 0 10.628906-8.648437 19.277343-19.277344 19.277343-10.628906 0-19.28125-8.648437-19.28125-19.277343zm0 0"/><path d="m143.394531 397.519531h-89.265625c-5.554687 0-10.0625 4.507813-10.0625 10.066407v54.804687c0 5.558594 4.507813 10.066406 10.0625 10.066406h89.265625c5.558594 0 10.066407-4.507812 10.066407-10.066406v-54.804687c0-5.558594-4.507813-10.066407-10.066407-10.066407zm-10.0625 54.808594h-69.136719v-34.679687h69.136719zm0 0"/><path d="m392.628906 409.882812h-79.652344c-5.558593 0-10.0625 4.507813-10.0625 10.0625 0 5.558594 4.503907 10.066407 10.0625 10.066407h79.652344c5.558594 0 10.0625-4.507813 10.0625-10.066407 0-5.554687-4.503906-10.0625-10.0625-10.0625zm0 0"/><path d="m392.628906 446.835938h-48.066406c-5.554688 0-10.0625 4.503906-10.0625 10.0625 0 5.558593 4.507812 10.066406 10.0625 10.066406h48.066406c5.558594 0 10.0625-4.507813 10.0625-10.066406 0-5.558594-4.503906-10.0625-10.0625-10.0625zm0 0"/><path d="m445.914062 129.789062v-119.65625c0-.011718 0-.023437 0-.035156v-.035156c0-.023438-.003906-.042969-.003906-.066406-.003906-.28125-.019531-.5625-.042968-.84375-.007813-.101563-.023438-.203125-.035157-.304688-.023437-.199218-.054687-.398437-.089843-.597656-.023438-.121094-.042969-.242188-.070313-.363281-.039063-.175781-.085937-.351563-.136719-.527344-.035156-.121094-.0625-.246094-.101562-.367187-.003906-.007813-.007813-.019532-.007813-.027344-.085937-.261719-.183593-.519532-.285156-.769532-.042969-.101562-.09375-.199218-.136719-.300781-.082031-.175781-.164062-.351562-.253906-.519531-.054688-.105469-.113281-.207031-.171875-.308594-.09375-.164062-.191406-.328125-.296875-.484375-.058594-.09375-.117188-.183593-.179688-.273437-.121093-.167969-.246093-.335938-.375-.496094-.054687-.070312-.109374-.140625-.164062-.210938-.1875-.222656-.382812-.441406-.589844-.648437-.003906-.003906-.007812-.003906-.007812-.007813-.210938-.210937-.433594-.410156-.660156-.597656-.070313-.0625-.144532-.117187-.21875-.175781-.15625-.121094-.316407-.242187-.480469-.355469-.097657-.070312-.195313-.132812-.292969-.195312-.152344-.097656-.304688-.191406-.460938-.28125-.105468-.0625-.210937-.125-.316406-.179688-.179687-.09375-.363281-.179687-.546875-.261718-.105469-.046876-.207031-.097657-.3125-.140626-.242187-.101562-.492187-.191406-.742187-.273437-.113282-.035156-.230469-.066406-.34375-.097656-.179688-.050781-.359375-.097657-.542969-.136719-.117187-.027344-.238281-.050781-.359375-.074219-.195312-.035156-.394531-.066406-.59375-.0898435-.105469-.0117187-.207031-.0273437-.316406-.0390625-.304688-.0273438-.617188-.046875-.929688-.046875h-225.410156c-5.558594 0-10.066406 4.507812-10.066406 10.0625 0 5.558594 4.507812 10.066406 10.066406 10.066406h194.300781l-59.203125 42.789063c-2.621094 1.890625-4.171875 4.925781-4.171875 8.15625 0 .519531.054688 1.03125.132813 1.539062v49.40625h-236.8125v-50.945312c0-.441407-.03125-.875-.089844-1.308594-.019531-.144531-.054688-.28125-.078125-.421875-.050781-.289062-.105469-.570312-.179687-.847656-.039063-.164063-.09375-.320313-.144532-.476563-.082031-.253906-.167968-.503906-.269531-.75-.066406-.15625-.132813-.3125-.207031-.464843-.109375-.242188-.234375-.476563-.367188-.707032-.078125-.140625-.160156-.285156-.25-.425781-.148437-.234375-.316406-.460937-.484375-.6875-.089843-.117187-.175781-.238281-.269531-.351563-.222656-.269531-.46875-.523437-.71875-.769531-.058594-.054687-.109375-.113281-.164062-.167969-.300782-.277343-.617188-.539062-.953126-.78125l-59.292968-42.785156h57.984375c5.554687 0 10.0625-4.507812 10.0625-10.066406 0-5.554688-4.507813-10.0625-10.0625-10.0625h-89.132813c-.3125 0-.625.0195312-.933594.046875-.101562.0117188-.207031.0273438-.3125.0390625-.199218.0234375-.398437.0546875-.59375.0898435-.121093.023438-.242187.046875-.359374.074219-.183594.039062-.363282.085938-.539063.136719-.117187.03125-.230469.0625-.347656.097656-.25.082031-.492188.171875-.734375.269531-.109375.046875-.210938.09375-.316406.144532-.183594.082031-.367188.167968-.550782.261718-.105468.058594-.207031.117188-.3125.175782-.15625.09375-.3125.1875-.464844.285156-.097656.0625-.195312.128906-.289062.195312-.164062.113282-.324219.234375-.480469.359375-.074219.054688-.148437.113281-.222656.171875-.226563.191406-.449219.390625-.65625.597656-.003906.003907-.003906.003907-.007813.007813-.207031.207031-.402343.425781-.59375.648437-.054687.070313-.109374.140626-.167968.210938-.125.164062-.25.328125-.367188.496094-.066406.089844-.125.183594-.1875.277344-.101562.15625-.199218.316406-.289062.476562-.058594.105469-.121094.207031-.175782.316406-.085937.164063-.167968.332032-.242187.5-.050781.109375-.105469.214844-.148437.320313-.105469.25-.199219.507812-.285157.769531 0 .007812-.003906.015625-.007812.023438-.039063.125-.070313.253906-.105469.378906-.046875.171875-.09375.34375-.132812.515625-.027344.125-.046876.246093-.070313.367187-.035156.199219-.066406.394532-.0898438.589844-.0117187.105469-.0273437.207031-.0351562.3125-.0234375.273438-.0390625.550781-.04296875.828125 0 .027344-.00390625.050781-.00390625.078125v.042969.027343 121.882813.027344 369.894531c0 5.558594 4.507812 10.0625 10.066406 10.0625h425.78125c5.558594 0 10.066406-4.503906 10.066406-10.0625v-367.542969c.363282-1.542969.347657-3.117187 0-4.605469zm-20.128906-100.035156v82.464844l-57.097656-41.199219zm-64.160156 61.105469 43.117188 31.160156h-43.117188zm-277.070312-.113281v31.273437h-43.339844zm-7.132813-19.671875-57.292969 41.339843v-82.675781zm-57.292969 420.796875v-349.722656h405.65625v349.722656zm0 0"/><path d="m232.855469 353.785156c-2.089844-5.152344-7.960938-7.632812-13.105469-5.550781-5.152344 2.089844-7.636719 7.957031-5.550781 13.109375l.1875.453125c1.585937 3.914063 5.351562 6.289063 9.328125 6.289063 1.257812 0 2.539062-.238282 3.777344-.738282 5.152343-2.085937 7.636718-7.957031 5.546874-13.105468zm0 0"/><path d="m145.710938 14.792969c1.582031 3.921875 5.351562 6.304687 9.335937 6.304687 1.253906 0 2.527344-.234375 3.761719-.730468 5.152344-2.078126 7.648437-7.941407 5.570312-13.097657l-.183594-.457031c-2.078124-5.15625-7.9375-7.644531-13.097656-5.570312-5.152344 2.074218-7.648437 7.941406-5.570312 13.097656zm0 0"/></svg>