<?xml version="1.0" encoding="iso-8859-1"?>
<!-- Generator: Adobe Illustrator 19.0.0, SVG Export Plug-In . SVG Version: 6.00 Build 0)  -->
<svg version="1.1" id="Layer_1" xmlns="http://www.w3.org/2000/svg" xmlns:xlink="http://www.w3.org/1999/xlink" x="0px" y="0px"
	 viewBox="0 0 511.999 511.999" style="enable-background:new 0 0 511.999 511.999;" xml:space="preserve">
<g>
	<g>
		<path d="M491.052,204.803h-5.167c26.665-58.593,38.59-120.751,8.052-138.383c-11.752-6.785-33.084-8.498-67.973,21.872
			c-20.655,17.98-41.916,43.768-60.971,73.78c-5.926-4.343-12.512-7.578-19.585-9.554c-0.075-7.784-1.404-15.646-3.908-23.262
			l33.782-69.584c1.572-3.238,1.367-7.057-0.544-10.109c-1.911-3.051-5.257-4.904-8.857-4.904h-29.258
			c-4.002,0-7.652,2.286-9.4,5.885L309.563,86.92c-23.324-15.993-52.897-18.662-76.206-6.74c-1.711-2.263-3.579-4.409-5.594-6.425
			c-11.667-11.668-27.179-18.093-43.679-18.093c-9.314,0-18.312,2.049-26.482,5.93V26.099c0-5.771-4.678-10.449-10.449-10.449
			h-44.228c-5.771,0-10.449,4.678-10.449,10.449v71.488c0,32.426-10.449,43.999-22.548,57.399
			c-10.394,11.511-22.008,24.394-24.522,49.818H20.898C9.375,204.803,0,214.179,0,225.702v35.506
			c0,11.523,9.375,20.898,20.898,20.898h5.178v156.561c0,31.805,25.875,57.682,57.682,57.682h344.404
			c31.805,0,57.681-25.876,57.681-57.682V282.106h5.21c11.523,0,20.899-9.375,20.899-20.899v-35.505
			C511.951,214.179,502.576,204.803,491.052,204.803z M372.852,189.432c1.126-1.951,2.265-3.885,3.412-5.805h0.001
			c0.006-0.011,0.011-0.023,0.019-0.034c19.565-32.758,41.925-60.84,63.403-79.537c22.853-19.893,37.879-22.958,43.802-19.536
			c12.621,7.286,12.061,52.862-20.682,120.283h-98.433C367.082,199.654,369.915,194.517,372.852,189.432z M354.139,180.048
			l0.01,0.002c-4.693,8.178-9.119,16.472-13.226,24.753h-36.101l19.707-40.59c0.375,1.16,0.953,2.256,1.72,3.233
			c1.724,2.2,4.258,3.616,7.034,3.935C341.03,172.269,348.158,175.244,354.139,180.048z M343.167,65.56h6.027L278.17,211.85
			c-1.481-1.044-3.037-1.984-4.659-2.815L343.167,65.56z M333.713,322.633l42.194,42.194l-42.192,42.191l-42.193-42.194
			L333.713,322.633z M322.742,282.106h21.943l-10.972,10.972L322.742,282.106z M464.945,339.863v50.02
			c-0.383,0.289-0.758,0.598-1.108,0.948l-16.186,16.186l-42.189-42.189l7.987-7.987c4.08-4.08,4.081-10.697,0-14.777
			s-10.697-4.08-14.777,0l-7.987,7.987l-42.194-42.194l25.75-25.75h32.946L464.945,339.863z M436.742,282.106h28.203v28.203
			L436.742,282.106z M276.745,350.047l-11.162-11.162c-4.08-4.079-10.697-4.079-14.778,0c-4.08,4.08-4.08,10.697,0,14.778
			l11.162,11.162l-42.237,42.237l-42.19-42.19l35.167-35.167c4.08-4.08,4.08-10.697,0-14.778c-4.08-4.079-10.697-4.079-14.778,0
			l-35.167,35.167l-42.191-42.191l25.796-25.797h146.819l25.75,25.75L276.745,350.047z M91.014,307.903l-42.192,42.192l-1.847-1.847
			v-66.143h18.242v0.001L91.014,307.903z M105.791,322.682l42.191,42.191l-42.192,42.192l-42.191-42.191L105.791,322.682z
			 M94.773,282.106h22.039l-11.02,11.019L94.773,282.106z M238.206,243.454c0-9.789,7.964-17.752,17.753-17.752
			s17.753,7.964,17.753,17.752c0,9.789-7.964,17.753-17.753,17.753S238.206,253.243,238.206,243.454z M157.602,86.295
			c7.385-6.301,16.67-9.734,26.482-9.734c10.917,0,21.182,4.252,28.902,11.972c3.127,3.128,5.715,6.725,7.69,10.692
			c1.388,2.787,3.946,4.811,6.978,5.519c3.032,0.71,6.224,0.027,8.701-1.858c17.864-13.586,44.249-11.971,63.954,3.102
			l-47.975,98.815h-47.66c-2.514-25.424-14.128-38.307-24.522-49.818c-12.099-13.4-22.548-24.973-22.548-57.399V86.295z
			 M113.374,36.549h23.33v7.606h-23.33V36.549z M85.438,168.991c13.095-14.501,27.936-30.939,27.936-71.404V65.053h23.33v32.534
			c0,40.465,14.841,56.902,27.936,71.404c9.26,10.256,16.879,18.694,19.03,35.813H66.407
			C68.56,187.684,76.177,179.247,85.438,168.991z M20.898,261.208v-35.506h200.745c-2.764,5.32-4.335,11.354-4.335,17.752
			s1.572,12.432,4.335,17.753H20.898z M46.975,438.667v-57.168l1.847-1.847l42.191,42.191L53.42,459.435
			C49.358,453.521,46.975,446.368,46.975,438.667z M83.757,475.449c-4.961,0.001-9.693-0.992-14.016-2.781l36.049-36.049
			l38.829,38.829H83.757z M174.176,475.45l-53.608-53.608l42.192-42.192l42.19,42.19l-7.023,7.023c-4.08,4.08-4.08,10.697,0,14.778
			c2.041,2.041,4.715,3.061,7.389,3.061s5.349-1.02,7.389-3.061l7.023-7.023l38.832,38.832H174.176z M234.506,421.841l42.237-42.237
			l42.194,42.194l-42.237,42.237L234.506,421.841z M294.84,475.45l38.875-38.875l38.875,38.875H294.84z M348.494,421.797
			l42.192-42.191l42.189,42.189l-42.191,42.191L348.494,421.797z M428.161,475.45h-19.388l38.878-38.879l14.964,14.964
			C457.387,465.489,443.918,475.45,428.161,475.45z M464.945,424.309l-2.515-2.515l2.515-2.515V424.309z M491.052,261.208H290.275
			c2.764-5.321,4.335-11.355,4.335-17.753c0-4.554-0.797-8.923-2.25-12.983l2.316-4.769h52.766h121.852h21.758V261.208z"/>
	</g>
</g>
<g>
	<g>
		<path d="M477.229,124.431c-1.493-5.575-7.223-8.883-12.797-7.389l-19.524,5.231c-5.575,1.493-8.883,7.224-7.389,12.797
			c1.251,4.669,5.472,7.747,10.087,7.747c0.894,0,1.806-0.116,2.711-0.358l19.524-5.231
			C475.415,135.735,478.723,130.005,477.229,124.431z"/>
	</g>
</g>
<g>
	<g>
		<path d="M445.914,178.672c-1.493-5.575-7.224-8.883-12.797-7.389l-19.524,5.231c-5.575,1.492-8.883,7.223-7.389,12.796
			c1.251,4.669,5.472,7.748,10.087,7.748c0.894,0,1.806-0.116,2.711-0.358l19.524-5.231
			C444.1,189.976,447.408,184.246,445.914,178.672z"/>
	</g>
</g>
<g>
	<g>
		<path d="M234.806,292.824c-4.08-4.08-10.697-4.08-14.778,0l-0.097,0.097c-4.08,4.08-4.08,10.697,0,14.778
			c2.042,2.041,4.716,3.061,7.39,3.061c2.674,0,5.349-1.02,7.389-3.061l0.097-0.097
			C238.887,303.522,238.887,296.905,234.806,292.824z"/>
	</g>
</g>
<g>
	<g>
		<path d="M191.736,449.833c-4.08-4.08-10.697-4.08-14.777,0l-0.097,0.097c-4.08,4.08-4.08,10.697,0,14.778
			c2.041,2.041,4.715,3.061,7.389,3.061c2.674,0,5.349-1.02,7.389-3.061l0.097-0.097
			C195.816,460.531,195.816,453.915,191.736,449.833z"/>
	</g>
</g>
<g>
	<g>
		<path d="M432.946,322.565c-4.08-4.08-10.697-4.08-14.778,0l-0.097,0.097c-4.08,4.08-4.08,10.697,0,14.778
			c2.042,2.041,4.716,3.061,7.39,3.061s5.349-1.02,7.389-3.061l0.097-0.097C437.027,333.263,437.027,326.646,432.946,322.565z"/>
	</g>
</g>
<g>
</g>
<g>
</g>
<g>
</g>
<g>
</g>
<g>
</g>
<g>
</g>
<g>
</g>
<g>
</g>
<g>
</g>
<g>
</g>
<g>
</g>
<g>
</g>
<g>
</g>
<g>
</g>
<g>
</g>
</svg>
