<svg height="480pt" viewBox="0 0 480 480" width="480pt" xmlns="http://www.w3.org/2000/svg"><path d="m408 0h-80c-4.417969 0-8 3.582031-8 8v24c0 3.800781 2.675781 7.078125 6.398438 7.839844l7.65625 1.535156c6.523437 1.324219 12.660156 4.117188 17.945312 8.160156v1.601563c.015625 15.347656-7.65625 29.683593-20.441406 38.183593l8.882812 13.3125c12.523438-8.347656 21.566406-20.980468 25.421875-35.527343.988281 2.195312 1.792969 4.472656 2.402344 6.804687.875 3.566406 4.066406 6.074219 7.734375 6.089844h16v22.824219l-21.664062 72.207031 15.328124 4.601562 20.289063-67.632812h35.367187l14.679688 80.71875v183.28125c0 13.253906-10.746094 24-24 24h-20.664062v16h20.664062c22.082031-.027344 39.972656-17.917969 40-40v-184c0-.480469-.046875-.960938-.136719-1.433594l-15.863281-87.261718v-23.304688h16c4.417969 0 8-3.582031 8-8-.042969-39.746094-32.253906-71.9570312-72-72zm32 96h-32v-16h32zm8-32h-66.105469c-7.238281-19.652344-24.144531-34.152344-44.671875-38.3125l-1.222656-.246094v-9.441406h72c27.824219.035156 51.417969 20.464844 55.433594 48zm0 0"/><path d="m40 416h56v-16h-56c-13.253906 0-24-10.746094-24-24v-114.550781c0-8.179688 1.140625-16.316407 3.390625-24.175781l12.304687-43.074219c.445313-1.550781.40625-3.199219-.109374-4.726563l-14.050782-42.144531c-3.902344-11.742187-.21875-24.671875 9.289063-32.59375l32.070312-26.734375h74.210938l23.199219 19.34375 10.246093-12.289062-22.550781-18.808594v-20.246094c0-2.121094-.84375-4.15625-2.34375-5.65625l-13.65625-13.65625v-28.6875c0-4.417969-3.582031-8-8-8h-48c-4.417969 0-8 3.582031-8 8v28.6875l-13.65625 13.65625c-1.5 1.5-2.34375 3.535156-2.34375 5.65625v20.246094l-31.425781 26.195312c-14.558594 12.140625-20.183594 31.96875-14.175781 49.949219l13.257812 39.792969-11.65625 40.6875c-2.65625 9.292968-4.00390625 18.910156-4 28.578125v114.550781c.0273438 22.082031 17.917969 39.972656 40 40zm40-400h32v16h-32zm-16 43.3125 11.3125-11.3125h41.375l11.3125 11.3125v12.6875h-64zm0 0"/><path d="m144 136c0-17.945312-21.089844-32-48-32s-48 14.054688-48 32 21.089844 32 48 32 48-14.054688 48-32zm-80 0c0-7.550781 13.6875-16 32-16s32 8.449219 32 16-13.6875 16-32 16-32-8.449219-32-16zm0 0"/><path d="m87.199219 265.34375 5.375-15.0625-49.886719-17.816406c-2.449219-.875-5.171875-.503906-7.296875.996094s-3.390625 3.9375-3.390625 6.539062v96c.027344 22.082031 17.917969 39.972656 40 40h16v-16h-16c-13.253906 0-24-10.746094-24-24v-84.648438zm0 0"/><path d="m302.574219 259.238281c22.167969 29.25 29.328125 67.207031 19.335937 102.523438-3.824218 12.4375 3.082032 25.632812 15.480469 29.582031s25.664063-2.824219 29.738281-15.183594c17.945313-50.820312 8.582032-107.289062-24.800781-149.601562l-3.199219-4.085938c-8.703125-11.132812-24.765625-13.140625-35.941406-4.496094-11.179688 8.648438-13.269531 24.699219-4.683594 35.917969zm6.882812-23.160156c.839844-3.628906 3.691407-6.453125 7.332031-7.261719 3.636719-.804687 7.414063.546875 9.714844 3.480469l3.199219 4.085937c30.007813 38.019532 38.425781 88.769532 22.296875 134.441407-1.070312 2.566406-3.398438 4.390625-6.148438 4.820312-2.746093.429688-5.519531-.597656-7.324218-2.714843-1.460938-1.9375-1.929688-4.449219-1.253906-6.777344 11.359374-40.167969 3.214843-83.339844-22-116.609375l-4.121094-5.40625c-1.738282-2.296875-2.363282-5.253907-1.695313-8.058594zm0 0"/><path d="m145.34375 476.441406c1.484375 2.222656 3.980469 3.558594 6.65625 3.558594h192c2.429688 0 4.730469-1.101562 6.246094-3l20-25.007812c34.777344-43.488282 50.746094-99.0625 44.351562-154.375-6.390625-55.316407-34.613281-105.785157-78.390625-140.191407l-32.207031-25.3125v-28.113281c0-4.417969-3.582031-8-8-8h-8v-32c0-8.835938-7.164062-16-16-16h-64c-8.835938 0-16 7.164062-16 16v32h-8c-4.417969 0-8 3.582031-8 8v29.039062l-10.671875 12.457032c-79.722656 93.511718-87.875 228.515625-19.984375 330.945312zm62.65625-412.441406h64v32h-64zm-30.527344 91.902344 12.597656-14.695313c1.246094-1.449219 1.929688-3.296875 1.929688-5.207031v-24h96v16h-80v16h85.230469l33.097656 26c40.425781 31.773438 66.484375 78.375 72.386719 129.453125 5.902344 51.074219-8.84375 102.390625-40.953125 142.546875l-17.601563 22h-183.839844c-61.484374-96.171875-52.898437-221.230469 21.152344-308.097656zm0 0"/><path d="m228 416c30.867188.019531 59.679688-15.46875 76.6875-41.222656 1.125-1.695313 1.5625-3.75 1.222656-5.753906-9.695312-57.597657-31.46875-102.816407-64.742187-134.398438-1.308594-1.246094-3-2.015625-4.800781-2.175781-2.765626-.28125-5.535157-.449219-8.367188-.449219-50.808594 0-92 41.191406-92 92s41.191406 92 92 92zm0-168c1.398438 0 2.792969.054688 4.167969.144531 28.976562 28.511719 48.273437 68.96875 57.417969 120.351563-21.027344 29.117187-59.566407 39.539062-92.402344 24.988281-32.835938-14.550781-51.003906-50.097656-43.5625-85.234375 7.441406-35.132812 38.464844-60.261719 74.378906-60.25zm0 0"/></svg>