<svg height="511pt" viewBox="-15 0 511 511.99922" width="511pt" xmlns="http://www.w3.org/2000/svg"><path d="m479.828125 388.71875c-1.316406-3.285156-3.332031-5.503906-5.984375-6.59375-4.410156-1.808594-8.777344.097656-12.632812 1.777344-.046876.019531-.09375.039062-.144532.0625 3.3125-10.03125.734375-21.753906-6.558594-29.410156-4.90625-5.148438-11.75-8.265626-18.800781-8.894532 2.96875-8.03125 2.265625-17.46875-2.492187-24.679687-5.371094-8.132813-15.386719-12.640625-25.007813-11.957031.023438-5.933594-1.652343-12.015626-4.914062-17.460938-4.699219-7.855469-12.125-13.4375-20.367188-15.316406-.757812-.171875-1.523437-.300782-2.289062-.410156.90625-72.453126-14.460938-145.550782-44.460938-211.503907 7.585938-3.3125 13.101563-9.453125 14.601563-16.421875 2.808594-13.046875-10.023438-30.496094-22.101563-35.097656-12.054687-4.59375-26.289062-5.4375-40.054687-6.253906-4.75-.28125-9.234375-.546875-13.449219-.960938-38.675781-3.808594-77.972656-5.699218-116.84375-5.59374975-21.890625.05468755-44.054687.73828175-65.875 2.03515575-12.683594.753907-24.894531 2.027344-34.898437 9.292969-12.109376 8.792969-16.769532 25.34375-10.609376 37.679688 3.125 6.257812 8.921876 11.410156 16.304688 14.632812-.003906.007813-.007812.015625-.007812.023438-28.65625 99.195312-58.292969 201.761719-62.46875 307.253906-1.015626 25.589844.132812 52.109375 15.257812 72.695313 17.65625 24.035156 49.148438 32.15625 77.621094 36.929687 41.199218 6.910156 88.34375 10.488281 136.421875 10.488281 16.597656 0 33.308593-.425781 49.921875-1.289062.492187-.027344.953125-.144532 1.398437-.300782 8.199219 5.402344 17.625 9.996094 28.257813 13.730469 16.714844 5.867188 33.78125 8.824219 50.511718 8.824219 10.738282 0 21.34375-1.21875 31.621094-3.667969 27.917969-6.648437 53.101563-22.988281 69.097656-44.824219 10.378907-14.171874 17.074219-30.820312 19.359376-48.136718l.171874-1.292969c1.011719-7.554687 2.398438-17.90625-.585937-25.359375zm-99.125-102.722656c5.597656 1.273437 10.703125 5.175781 14.011719 10.699218 3.308594 5.527344 4.332031 11.871094 2.808594 17.40625-.503907 1.835938.078124 3.796876 1.496093 5.0625 1.421875 1.261719 3.4375 1.609376 5.199219.898438 7.144531-2.886719 16.40625-.003906 20.648438 6.425781 4.246093 6.429688 3.253906 16.082031-2.207032 21.515625-1.628906 1.621094-1.941406 4.148438-.761718 6.117188 1.1875 1.972656 3.5625 2.882812 5.757812 2.207031 6.707031-2.066406 14.769531.042969 19.609375 5.121094s6.554687 13.234375 4.167969 19.835937c-.695313 1.925782-.132813 3.992188 1.257812 5.320313-5.160156 1.253906-10.347656 2.359375-15.402344 3.429687-1.511718.316406-3.023437.640625-4.539062.964844-8.019531 1.71875-16.3125 3.496094-24.4375 4.597656-22.039062 3-44.511719 3.617188-66.792969 1.839844-22.359375-1.78125-44.433593-5.96875-65.617187-12.445312-1.449219-.445313-3.980469-1.574219-6.664063-2.769532-4.128906-1.839844-7.855469-3.445312-11.214843-4.597656.589843-10.054688 5.734374-19.890625 13.71875-26.023438 8.484374-6.511718 20.167968-8.851562 30.507812-6.105468 1.921875.511718 3.964844-.167969 5.199219-1.726563 1.238281-1.554687 1.433593-3.699219.496093-5.453125-5.234374-9.839844-2.535156-23.660156 6.019532-30.804687 8.554687-7.148438 22.632812-7.34375 31.382812-.4375 1.378906 1.085937 3.222656 1.371093 4.867188.75 1.640625-.621094 2.835937-2.054688 3.148437-3.78125 1.027344-5.648438 4.703125-10.925781 10.074219-14.472657 5.375-3.546874 11.667969-4.851562 17.265625-3.574218zm-324.8125-241.449219c-3.96875-7.953125-.589844-19.222656 7.539063-25.125 7.820312-5.675781 18.472656-6.738281 29.617187-7.402344 21.632813-1.285156 43.605469-1.960937 65.304687-2.015625 38.476563-.113281 77.5 1.769532 115.839844 5.542969 4.410156.433594 8.992188.707031 13.839844.992187 13.011719.769532 26.46875 1.566407 37.085938 5.613282 8.007812 3.054687 17.574218 15.800781 15.886718 23.652344-.890625 4.136718-4.875 8.023437-10.152344 9.890624-5.515624 1.957032-11.863281 1.964844-18 1.972657l-219.09375.265625c-7.546874.003906-15.332031.019531-22.394531-1.980469-7.234375-2.050781-12.875-6.207031-15.472656-11.40625zm39.414063 426.140625c-26.496094-4.441406-55.675782-11.835938-71.214844-32.988281-13.308594-18.109375-14.269532-42.605469-13.328125-66.378907 4.132812-104.242187 33.574219-206.183593 62.054687-304.769531 6.5 1.273438 13.019532 1.382813 19.386719 1.382813h1.566406l219.09375-.265625c4.28125-.007813 8.929688-.015625 13.601563-.691407.0625.1875.109375.378907.191406.566407 29.722656 64.972656 44.929688 137.074219 43.980469 208.523437-4.414063.816406-8.753907 2.550782-12.707031 5.160156-5.519532 3.644532-9.792969 8.65625-12.308594 14.296876-12.097656-5.847657-27.671875-4.371094-38.066406 4.3125-9.84375 8.222656-14.15625 22.167968-11.527344 34.613281-10.769532-.59375-21.839844 2.667969-30.375 9.222656-9.910156 7.605469-16.394532 19.660156-17.5 32.113281-1.300782.070313-2.511719.324219-3.628906.796875-8.414063 3.539063-7.109376 14.605469-6.410157 20.550781.085938.75.167969 1.429688.21875 2.015626 2.1875 25.199218 5.410157 49.480468 20.582031 69.574218 3.089844 4.09375 6.621094 7.921875 10.550782 11.5-60.808594 2.507813-122.28125-.835937-174.160156-9.535156zm375.199218-57.933594-.175781 1.3125c-2.066406 15.65625-8.125 30.710938-17.511719 43.53125-14.617187 19.953125-37.703125 34.902344-63.347656 41.007813-24.070312 5.734375-51.238281 4.007812-76.503906-4.863281-20.433594-7.175782-35.933594-17.617188-46.070313-31.046876-13.589843-17.996093-16.460937-39.816406-18.597656-64.414062-.058594-.671875-.152344-1.457031-.25-2.316406-1.070313-9.082032.109375-10.066406.3125-10.152344 2.644531-.777344 12.566406 3.652344 16.804687 5.539062 3.101563 1.382813 5.78125 2.578126 7.816407 3.203126 21.871093 6.6875 44.667969 11.011718 67.746093 12.851562 22.992188 1.832031 46.183594 1.195312 68.9375-1.898438 8.496094-1.15625 16.980469-2.972656 25.183594-4.730468 1.507813-.324219 3.011719-.644532 4.511719-.964844 6.589844-1.390625 13.410156-2.832031 20.21875-4.632812 1.984375-.523438 3.839844-1.332032 5.632813-2.113282 1.453124-.632812 3.835937-1.671875 4.785156-1.671875.109375.136719.3125.441407.550781 1.039063 2.003906 5.015625.769531 14.226562-.042969 20.320312zm0 0"/><path d="m250.0625 288.648438c1.039062-9.34375 2.117188-19.007813 4.164062-28.207032.4375-1.964844-.347656-4.003906-1.992187-5.167968-1.644531-1.164063-3.824219-1.226563-5.535156-.160157-.230469.144531-.46875.292969-.699219.4375 2.984375-20.730469 2.566406-41.660156-1.269531-62.339843-.199219-1.085938-1.097657-4.773438-4.175781-6.542969-.601563-.34375-1.238282-.585938-1.886719-.726563-1.089844-17.347656-5.699219-34.503906-13.492188-50.027344-.683593-1.359374-1.941406-2.332031-3.425781-2.648437-1.488281-.320313-3.035156.058594-4.210938 1.019531-3.765624 3.082032-7.28125 6.417969-10.5625 9.96875 3.40625-13.023437 7.992188-26.320312 16.648438-36.582031 1.78125-2.109375 1.515625-5.261719-.597656-7.042969-2.109375-1.78125-5.261719-1.515625-7.042969.59375-9.316406 11.039063-14.316406 24.484375-17.9375 37.703125-2.75-11.789062-6.15625-23.476562-10.179687-34.859375-.921876-2.601562-3.773438-3.96875-6.382813-3.046875-2.601563.921875-3.964844 3.777344-3.046875 6.378907 4.925781 13.933593 8.902344 28.335937 11.835938 42.820312-1.78125-2.019531-3.414063-4.078125-4.777344-6.296875-.929688-1.511719-2.558594-2.441406-4.367188-2.378906-1.777344.039062-3.398437 1.019531-4.261718 2.570312-9.394532 16.917969-14.15625 36.433594-13.746094 55.789063-1.203125.605468-2.144532 1.675781-2.546875 3.019531-4.238281 14.144531-7.503907 28.726563-9.699219 43.339844-.429688 2.867187-.808594 5.914062-.804688 8.984375-.703124.011718-1.410156.167968-2.070312.480468-1.785156.84375-2.90625 2.664063-2.859375 4.640626.207031 8.4375-.511719 17.128906-1.207031 25.535156-.480469 5.800781-.976563 11.800781-1.179688 17.773437-.648437 18.949219 2.074219 33.246094 8.574219 44.996094 2.519531 4.558594 7.273437 10.140625 12.410156 14.566406 4.640625 4.007813 11.746094 8.9375 19.222657 9.675781.644531.0625 1.277343.09375 1.90625.09375.125 0 .25-.019531.375-.019531.539062.28125 1.136718.476563 1.777343.542969.050781.003906.101563.007812.15625.011719l-6.46875 71.910156c-.402343 4.5-1.636719 18.1875 8.25 23.554687 2.117188 1.148438 4.363281 1.65625 6.601563 1.65625 5.957031 0 11.84375-3.609374 15.003906-8.328124 3.898438-5.828126 4.636719-12.664063 5.058594-19.171876.464844-7.152343.71875-14.402343.960937-21.417968.617188-17.808594 1.242188-36.195313-2.980469-54.164063 6.667969-3.765625 12.78125-9.140625 17.746094-15.875 10.894532-14.78125 14.65625-33.074219 16.539063-45.542969.878906-5.847656 1.539062-11.777343 2.175781-17.515624zm-36.09375-9.789063c-4.65625 4.472656-8.613281 9.207031-11.84375 14.105469.578125-11.074219.527344-22.757813-1.515625-34.152344.144531-.453125.242187-.925781.25-1.425781.09375-8.675781 5.148437-19.335938 15.453125-32.589844 2.566406-3.304687 5.375-6.59375 8.085938-9.777344 3.894531-4.5625 7.882812-9.234375 11.46875-14.273437 3.109374 20.308594 2.765624 40.832031-1.039063 61.085937-.054687.296875-.070313.59375-.074219.886719-7.261718 4.800781-14.378906 9.992188-20.785156 16.140625zm5.03125-132.558594c6.40625 14.75 9.820312 30.832031 9.917969 46.902344-2.605469 3.855469-5.527344 7.511719-8.625 11.203125-1.9375-14.363281-7.683594-28.039062-16.640625-39.480469 4.320312-6.855469 9.460937-13.101562 15.347656-18.625zm-36.9375 9.71875c1.953125 2.277344 4.015625 4.414063 6.042969 6.507813 1.878906 1.945312 3.652343 3.78125 5.328125 5.707031 10.679687 12.265625 17.082031 28.621094 17.570312 44.875.019532.644531.167969 1.253906.410156 1.816406-1.011718 1.234375-2.019531 2.472657-3 3.734375-6.015624 7.742188-10.449218 14.84375-13.359374 21.40625-.992188-2.277344-2.105469-4.519531-3.359376-6.71875-3.199218-5.625-7.148437-10.671875-10.96875-15.554687-2.511718-3.210938-4.933593-6.3125-7.109374-9.5 0-.179688.019531-.355469 0-.539063-1.839844-17.558594 1.148437-35.644531 8.445312-51.734375zm-21.296875 91.726563c1.578125-10.488282 3.722656-20.957032 6.394531-31.253906 1.855469 2.558593 3.785156 5.027343 5.6875 7.460937 3.765625 4.808594 7.320313 9.355469 10.160156 14.339844 9.496094 16.675781 10.222657 36.484375 8.828126 58.632812-7.84375-12.085937-18.214844-22.53125-29.449219-32.601562-.101563-.605469-.304688-1.203125-.640625-1.761719-2.367188-3.9375-1.746094-9.714844-.980469-14.816406zm-.6875 96.085937c-5.585937-10.101562-7.914063-22.753906-7.332031-39.816406.199218-5.730469.683594-11.605469 1.152344-17.289063.425781-5.121093.855468-10.34375 1.09375-15.613281 14.253906 12.6875 26.386718 25.199219 33.871093 40.875 10.523438 22.035157 7.109375 41.582031 1.324219 48.425781-1.707031 2.015626-3.628906 2.804688-6.242188 2.542969-8.449218-.832031-19.957031-12.0625-23.867187-19.125zm46.507813 77.570313c-.238282 6.9375-.488282 14.109375-.941407 21.113281-.347656 5.363281-.867187 10.484375-3.390625 14.25-1.871094 2.796875-5.914062 4.867187-8.523437 3.449219-2.726563-1.476563-3.757813-6.144532-3.0625-13.867188l6.570312-73.054687c2.363281-.347657 4.714844-.898438 7.035157-1.632813 3.464843 16.164063 2.886718 33.210938 2.3125 49.742188zm33.539062-133.859375c-.625 5.640625-1.273438 11.472656-2.128906 17.125-2.734375 18.152343-7.40625 31.210937-14.695313 41.105469-5.898437 7.996093-13.910156 13.738281-22.253906 16.363281 3.648437-6.671875 5.183594-15.363281 4.433594-25.511719-.429688-5.835938-1.648438-12.089844-3.425781-18 .316406-.515625.558593-1.089844.675781-1.722656 2.5-13.46875 11.257812-24.199219 18.164062-30.828125 6.441407-6.183594 13.871094-11.460938 21.464844-16.386719-.914063 5.992188-1.582031 11.988281-2.234375 17.855469zm0 0"/></svg>