<?xml version="1.0" encoding="iso-8859-1"?>
<!-- Generator: Adobe Illustrator 18.0.0, SVG Export Plug-In . SVG Version: 6.00 Build 0)  -->
<!DOCTYPE svg PUBLIC "-//W3C//DTD SVG 1.1//EN" "http://www.w3.org/Graphics/SVG/1.1/DTD/svg11.dtd">
<svg version="1.1" id="Capa_1" xmlns="http://www.w3.org/2000/svg" xmlns:xlink="http://www.w3.org/1999/xlink" x="0px" y="0px"
	 viewBox="0 0 54.081 54.081" style="enable-background:new 0 0 54.081 54.081;" xml:space="preserve">
<g>
	<path d="M39.053,17.527c2.694-0.428,4.773-2.507,5.201-5.201l0.994-3.598l-3.597,0.994c-2.694,0.428-4.773,2.507-5.202,5.201
		l-0.435,1.577c0,0-0.001,0-0.001,0L0.293,52.221c-0.391,0.391-0.391,1.023,0,1.414C0.488,53.83,0.744,53.928,1,53.928
		s0.512-0.098,0.707-0.293L37.342,18L39.053,17.527z M38.417,15.281c0.278-1.869,1.721-3.313,3.59-3.59l0.374-0.096l-0.096,0.373
		c-0.278,1.869-1.721,3.313-3.59,3.59l-0.374,0.096L38.417,15.281z"/>
	<path d="M32.529,19.183l1.841-3.245c1.602-2.208,1.603-5.149,0-7.356l-1.841-3.247l-1.841,3.247c-1.603,2.207-1.603,5.148,0,7.356
		L32.529,19.183z M32.333,9.721l0.197-0.332l0.196,0.332c1.125,1.518,1.125,3.559,0,5.078l-0.196,0.331l-0.196-0.331
		C31.208,13.279,31.208,11.238,32.333,9.721z"/>
	<path d="M37.99,19.559l-3.246,1.841l3.246,1.841c1.104,0.802,2.391,1.202,3.678,1.202s2.574-0.4,3.678-1.202l3.247-1.841
		l-3.247-1.841C43.14,17.955,40.199,17.955,37.99,19.559z M44.207,21.596c-1.518,1.125-3.559,1.125-5.077,0l-0.332-0.196
		l0.332-0.196c1.52-1.127,3.56-1.127,5.077,0l0.332,0.196L44.207,21.596z"/>
	<path d="M26.165,25.548l1.841-3.247c1.603-2.208,1.603-5.147,0-7.355l-1.841-3.247l-1.841,3.247c-1.602,2.208-1.602,5.147,0,7.355
		L26.165,25.548z M25.969,16.085l0.196-0.332l0.197,0.332c1.125,1.518,1.125,3.559,0,5.076l-0.197,0.332l-0.196-0.332
		C24.844,19.644,24.844,17.603,25.969,16.085z"/>
	<path d="M31.627,25.922l-3.246,1.841l3.246,1.841c1.104,0.802,2.391,1.202,3.679,1.202c1.287,0,2.574-0.4,3.679-1.202l3.245-1.841
		l-3.245-1.841C36.775,24.32,33.835,24.32,31.627,25.922z M37.844,27.959c-1.52,1.127-3.56,1.125-5.078,0l-0.332-0.196l0.332-0.196
		c1.519-1.124,3.56-1.125,5.078,0l0.332,0.196L37.844,27.959z"/>
	<path d="M19.801,31.912l1.841-3.247c1.602-2.207,1.602-5.147,0-7.356l-1.841-3.245l-1.841,3.245c-1.603,2.208-1.603,5.149,0,7.356
		L19.801,31.912z M19.605,22.447l0.196-0.331l0.196,0.331c1.125,1.52,1.125,3.561,0,5.078l-0.196,0.332l-0.197-0.332
		C18.479,26.008,18.479,23.967,19.605,22.447z"/>
	<path d="M25.263,32.286l-3.246,1.841l3.246,1.841c1.104,0.801,2.391,1.202,3.678,1.202c1.287,0,2.574-0.401,3.678-1.202
		l3.246-1.841l-3.246-1.841C30.411,30.685,27.471,30.685,25.263,32.286z M31.48,34.323c-1.518,1.125-3.558,1.126-5.078,0
		l-0.332-0.196l0.332-0.196c1.519-1.125,3.56-1.125,5.078,0l0.332,0.196L31.48,34.323z"/>
	<path d="M13.437,38.274l1.841-3.245c1.603-2.208,1.603-5.148,0-7.356l-1.841-3.245l-1.841,3.245c-1.602,2.208-1.602,5.148,0,7.356
		L13.437,38.274z M13.241,28.812l0.196-0.331l0.196,0.331c1.125,1.52,1.125,3.56,0,5.079l-0.196,0.331l-0.196-0.331
		C12.116,32.371,12.116,30.331,13.241,28.812z"/>
	<path d="M18.898,38.65l-3.246,1.841l3.246,1.841c1.104,0.802,2.391,1.202,3.678,1.202s2.574-0.4,3.678-1.202l3.246-1.841
		l-3.246-1.841C24.047,37.047,21.107,37.047,18.898,38.65z M25.116,40.688c-1.519,1.125-3.56,1.125-5.078,0l-0.332-0.196
		l0.332-0.196c1.519-1.127,3.56-1.127,5.078,0l0.332,0.196L25.116,40.688z"/>
	<path d="M7.073,44.64l1.841-3.247c1.603-2.208,1.603-5.147,0-7.355L7.073,30.79l-1.841,3.247c-1.603,2.208-1.603,5.147,0,7.355
		L7.073,44.64z M6.876,35.177l0.197-0.332l0.197,0.332c1.125,1.518,1.125,3.559,0,5.076l-0.197,0.332l-0.197-0.332
		C5.751,38.735,5.751,36.694,6.876,35.177z"/>
	<path d="M12.535,45.014l-3.246,1.841l3.246,1.841c1.104,0.802,2.391,1.202,3.678,1.202c1.288,0,2.574-0.4,3.679-1.202l3.246-1.841
		l-3.246-1.841C17.684,43.412,14.744,43.412,12.535,45.014z M18.752,47.051c-1.519,1.127-3.56,1.127-5.078,0l-0.332-0.196
		l0.332-0.196c1.519-1.125,3.559-1.125,5.078,0l0.332,0.196L18.752,47.051z"/>
	<path d="M36.11,7.811c0.256,0,0.512-0.098,0.707-0.293l5.657-5.657c0.391-0.391,0.391-1.023,0-1.414s-1.023-0.391-1.414,0
		l-5.657,5.657c-0.391,0.391-0.391,1.023,0,1.414C35.599,7.713,35.854,7.811,36.11,7.811z"/>
	<path d="M39.646,8.932c0.195,0.195,0.451,0.293,0.707,0.293s0.512-0.098,0.707-0.293l7.071-7.071c0.391-0.391,0.391-1.023,0-1.414
		s-1.023-0.391-1.414,0l-7.071,7.071C39.255,7.908,39.255,8.541,39.646,8.932z"/>
	<path d="M52.374,6.104l-7.071,7.071c-0.391,0.391-0.391,1.023,0,1.414c0.195,0.195,0.451,0.293,0.707,0.293
		s0.512-0.098,0.707-0.293l7.071-7.071c0.391-0.391,0.391-1.023,0-1.414S52.765,5.713,52.374,6.104z"/>
	<path d="M46.01,8.225c0.195,0.195,0.451,0.293,0.707,0.293s0.512-0.098,0.707-0.293l6.364-6.364c0.391-0.391,0.391-1.023,0-1.414
		s-1.023-0.391-1.414,0L46.01,6.811C45.619,7.201,45.619,7.834,46.01,8.225z"/>
	<path d="M52.374,11.761l-5.657,5.656c-0.391,0.391-0.391,1.023,0,1.414c0.195,0.195,0.451,0.293,0.707,0.293
		s0.512-0.098,0.707-0.293l5.657-5.656c0.391-0.391,0.391-1.023,0-1.414S52.765,11.37,52.374,11.761z"/>
</g>
<g>
</g>
<g>
</g>
<g>
</g>
<g>
</g>
<g>
</g>
<g>
</g>
<g>
</g>
<g>
</g>
<g>
</g>
<g>
</g>
<g>
</g>
<g>
</g>
<g>
</g>
<g>
</g>
<g>
</g>
</svg>
