<?xml version="1.0" encoding="iso-8859-1"?>
<!-- Generator: Adobe Illustrator 19.0.0, SVG Export Plug-In . SVG Version: 6.00 Build 0)  -->
<svg version="1.1" id="Capa_1" xmlns="http://www.w3.org/2000/svg" xmlns:xlink="http://www.w3.org/1999/xlink" x="0px" y="0px"
	 viewBox="0 0 512 512" style="enable-background:new 0 0 512 512;" xml:space="preserve">
<g>
	<g>
		<path d="M70.962,443.797l-0.092-0.088c-3.99-3.819-10.319-3.683-14.139,0.307c-3.82,3.989-3.683,10.319,0.307,14.139l0.092,0.088
			c1.938,1.855,4.428,2.777,6.915,2.777c2.632,0,5.26-1.033,7.224-3.084C75.089,453.947,74.952,447.617,70.962,443.797z"/>
	</g>
</g>
<g>
	<g>
		<path d="M70.962,341.797l-0.092-0.088c-3.99-3.819-10.319-3.683-14.139,0.307c-3.82,3.989-3.683,10.319,0.307,14.139l0.092,0.088
			c1.938,1.855,4.428,2.777,6.915,2.777c2.632,0,5.26-1.033,7.224-3.084C75.089,351.947,74.952,345.617,70.962,341.797z"/>
	</g>
</g>
<g>
	<g>
		<path d="M454.878,443.76l-0.093-0.088c-4.012-3.799-10.339-3.626-14.138,0.382c-3.798,4.01-3.627,10.339,0.382,14.138l0.093,0.088
			c1.935,1.832,4.407,2.74,6.876,2.74c2.65,0,5.295-1.047,7.262-3.122C459.058,453.888,458.887,447.559,454.878,443.76z"/>
	</g>
</g>
<g>
	<g>
		<path d="M454.878,341.76l-0.093-0.088c-4.012-3.799-10.339-3.627-14.138,0.382c-3.798,4.01-3.627,10.339,0.382,14.138l0.093,0.088
			c1.935,1.832,4.407,2.74,6.876,2.74c2.65,0,5.295-1.047,7.262-3.122C459.058,351.888,458.887,345.559,454.878,341.76z"/>
	</g>
</g>
<g>
	<g>
		<path d="M142.658,389.976h-0.13c-5.522,0-10,4.478-10,10c0,5.522,4.478,10,10,10h0.13c5.522,0,10-4.478,10-10
			C152.658,394.454,148.181,389.976,142.658,389.976z"/>
	</g>
</g>
<g>
	<g>
		<path d="M512,297.101c0-40.645-30.615-74.253-69.993-79.031c-2.34-25.223-16.49-47.06-36.855-59.935
			c4.357-2.514,8.391-5.584,12.001-9.194c13.911-13.912,19.884-34.036,16.388-55.213c-0.697-4.227-4.011-7.54-8.237-8.237
			c-21.177-3.498-41.302,2.477-55.214,16.388c-11.564,11.565-17.62,27.427-17.333,44.613c-36.799,4.621-65.86,34.431-69.306,71.578
			c-20.02,2.429-37.763,12.307-50.38,26.782c-0.528-4.529-1.605-8.949-3.194-13.189c21.03-8.237,35.97-28.714,35.97-52.629
			c0-31.159-25.35-56.509-56.509-56.509c-0.204,0-0.407,0.008-0.611,0.01c3.061-8.797,5.554-20.221,4.883-33.242
			c-0.212-4.124-2.937-7.692-6.858-8.984c-12.678-4.175-27.293-0.115-37.694,4.264c-2.68-12.279-9.183-29.726-24.931-44.396
			c-3.096-2.883-7.67-3.506-11.426-1.557c-24.863,12.915-36.033,34.317-40.978,49.222c-5.787-3.372-13.189-6.342-21.802-6.891
			c-4.47-0.278-8.578,2.434-10.066,6.653c-4.717,13.373-3.974,25.547-1.704,34.948c-0.546-0.016-1.093-0.027-1.641-0.027
			c-31.159,0-56.51,25.35-56.51,56.509c0,22.275,12.958,41.574,31.729,50.773c-2.835,6.81-4.308,14.133-4.308,21.659
			c0,13.91,5.062,26.653,13.427,36.509H10c-5.522,0-10,4.478-10,10v204c0,5.522,4.478,10,10,10h492c5.522,0,10-4.478,10-10v-204
			c0-0.148-0.016-0.291-0.022-0.438C511.984,297.392,512,297.249,512,297.101z M491.302,287.976H373.428
			c4.405-28.567,29.156-50.51,58.937-50.51S486.896,259.409,491.302,287.976z M384.232,116.022
			c7.688-7.688,18.472-11.735,30.271-11.494c0.216,11.827-3.806,22.583-11.493,30.271c-7.688,7.688-18.481,11.722-30.271,11.494
			C372.523,134.466,376.545,123.709,384.232,116.022z M362.729,165.846c30.408,0,55.555,22.882,59.171,52.329
			c-25.47,3.36-47.179,18.787-59.171,40.348c-11.993-21.561-33.702-36.988-59.172-40.348
			C307.173,188.728,332.322,165.846,362.729,165.846z M293.094,237.466c29.781,0,54.532,21.943,58.938,50.51H234.156
			C238.562,259.409,263.313,237.466,293.094,237.466z M209.338,142.526c20.131-0.001,36.509,16.377,36.509,36.508
			c0,18.464-13.78,33.761-31.594,36.17c-0.017,0.002-0.033,0.004-0.05,0.006c-1.593,0.213-3.214,0.334-4.865,0.334
			c-8.694,0-17.003-3.089-23.547-8.623c2.347-6.203,3.642-12.92,3.642-19.935c0-11.173-3.273-21.59-8.891-30.368
			C187.398,147.814,197.961,142.526,209.338,142.526z M132.924,223.495c-20.132,0-36.51-16.378-36.51-36.509
			c0-20.131,16.378-36.509,36.51-36.509c20.131,0,36.509,16.378,36.509,36.509c0,19.75-15.766,35.875-35.371,36.48
			c-0.029,0-0.059,0.002-0.088,0.002C133.624,223.478,133.276,223.495,132.924,223.495z M133.866,287.976h-6.854
			c1.213-1.43,2.358-2.918,3.427-4.464C131.508,285.058,132.653,286.546,133.866,287.976z M120.44,251.467
			c0,20.131-16.378,36.509-36.509,36.509c-20.132,0-36.51-16.378-36.51-36.509c0-5.68,1.302-11.178,3.788-16.179
			c1.746,0.163,3.513,0.257,5.301,0.257c12.287,0,24.206-4.068,33.927-11.362c7.452,8.501,17.399,14.759,28.696,17.603
			C119.996,244.921,120.44,248.159,120.44,251.467z M141.468,242.849c13.448-2.049,25.341-8.863,33.926-18.649
			c9.702,7.302,21.567,11.344,33.943,11.344c0.155,0,0.308-0.01,0.463-0.012c2.404,4.937,3.658,10.357,3.658,15.935
			c0,20.131-16.378,36.509-36.509,36.509c-20.132,0-36.51-16.378-36.51-36.509C140.439,248.533,140.789,245.652,141.468,242.849z
			 M76.713,102.718c8.181,3.135,13.529,9.14,13.567,9.183c2.613,3.058,6.805,4.25,10.636,3.032c3.832-1.221,6.561-4.618,6.925-8.624
			c0.028-0.313,2.947-29.24,27.739-46.153c15.27,18.107,15.35,39.429,15.349,39.621c-0.056,3.662,1.902,7.057,5.092,8.857
			c3.188,1.799,7.115,1.707,10.222-0.234c4.445-2.778,17.034-9.19,27.277-9.818c-1.184,15.033-7.317,26.341-9.487,29.924
			c-6.505,3.258-12.357,7.763-17.206,13.302c-9.451-7.11-21.192-11.331-33.903-11.331c-12.716,0-24.463,4.225-33.917,11.341
			c-4.91-5.582-10.86-10.122-17.456-13.392C79.479,124.525,75.205,114.75,76.713,102.718z M20,179.034
			c0-20.131,16.378-36.509,36.51-36.509c11.27,0,21.931,5.303,28.801,14.084c-5.622,8.78-8.896,19.2-8.896,30.376
			c0,7.015,1.295,13.731,3.642,19.934c-6.567,5.585-14.772,8.625-23.546,8.625c-2.803,0-5.528-0.328-8.151-0.929
			c-0.001,0-0.002-0.001-0.003-0.001C32.138,210.899,20,196.362,20,179.034z M492,389.976H182.333c-5.522,0-10,4.478-10,10
			c0,5.522,4.478,10,10,10H492v82H20v-82h82.667c5.522,0,10-4.478,10-10c0-5.522-4.478-10-10-10H20v-82h472V389.976z"/>
	</g>
</g>
<g>
	<g>
		<path d="M360.354,62.118c-21.755-21.755-57.156-21.756-78.913,0c-3.905,3.905-3.905,10.237,0,14.143
			c3.906,3.904,10.236,3.904,14.143,0c13.959-13.959,36.673-13.958,50.628,0c1.953,1.953,4.512,2.929,7.071,2.929
			c2.56,0,5.118-0.977,7.071-2.929C364.259,72.356,364.259,66.024,360.354,62.118z"/>
	</g>
</g>
<g>
	<g>
		<path d="M392.739,29.734c-39.615-39.613-104.069-39.612-143.685,0c-3.905,3.905-3.905,10.237,0,14.142
			c3.908,3.906,10.238,3.906,14.144,0c31.814-31.814,83.585-31.816,115.399,0c1.953,1.953,4.512,2.929,7.071,2.929
			s5.118-0.977,7.071-2.929C396.644,39.971,396.644,33.639,392.739,29.734z"/>
	</g>
</g>
<g>
	<g>
		<path d="M327.969,94.716c-1.86-1.86-4.44-2.93-7.07-2.93c-2.639,0-5.21,1.07-7.069,2.93c-1.87,1.87-2.931,4.44-2.931,7.07
			s1.061,5.21,2.931,7.08c1.859,1.86,4.43,2.92,7.069,2.92c2.63,0,5.21-1.06,7.07-2.92c1.86-1.87,2.93-4.44,2.93-7.08
			C330.899,99.156,329.83,96.586,327.969,94.716z"/>
	</g>
</g>
<g>
</g>
<g>
</g>
<g>
</g>
<g>
</g>
<g>
</g>
<g>
</g>
<g>
</g>
<g>
</g>
<g>
</g>
<g>
</g>
<g>
</g>
<g>
</g>
<g>
</g>
<g>
</g>
<g>
</g>
</svg>
