<svg height="512pt" viewBox="-27 0 512 512" width="512pt" xmlns="http://www.w3.org/2000/svg"><path d="m447.609375 419.25c-5.539063 0-10.03125 4.492188-10.03125 10.03125v62.660156h-39.222656v-115.332031c0-5.539063-4.492188-10.03125-10.03125-10.03125h-69.953125c-5.539063 0-10.03125 4.492187-10.03125 10.03125v115.328125h-36.851563v-181.855469h166.089844v34.953125c0 5.535156 4.492187 10.027344 10.03125 10.027344s10.03125-4.492188 10.03125-10.027344v-91.320312c0-.164063-.019531-.324219-.027344-.484375-.003906-.117188-.007812-.234375-.015625-.351563-.035156-.414062-.089844-.820312-.171875-1.222656 0 0 0-.003906-.003906-.003906-.082031-.40625-.199219-.800782-.332031-1.1875-.03125-.089844-.066406-.175782-.097656-.265625-.125-.335938-.269532-.667969-.429688-.984375-.03125-.058594-.054688-.117188-.082031-.175782-.199219-.367187-.417969-.722656-.65625-1.066406-.015625-.023437-.027344-.050781-.046875-.078125l-53.867188-75.640625v-90.507812c0-45.074219-36.667968-81.746094-81.742187-81.746094h-26.121094c-45.074219 0-81.746094 36.671875-81.746094 81.746094v9.160156h-202.269531c-5.539062 0-10.03125 4.488281-10.03125 10.027344v328.230468.019532.019531 72.765625c0 5.539062 4.492188 10.03125 10.03125 10.03125h437.578125c5.539063 0 10.027344-4.492188 10.027344-10.03125v-72.6875c0-5.539062-4.488281-10.03125-10.027344-10.03125zm-176.121094-129.226562v-26.277344h166.089844v26.277344zm10.152344-46.335938 44.085937-58.195312h60.984376l41.441406 58.195312zm-49.277344-161.941406c0-34.015625 27.671875-61.6875 61.683594-61.6875h26.121094c34.011719 0 61.683593 27.671875 61.683593 61.6875v9.160156h-149.488281zm-212.300781 29.21875h361.789062v54.46875h-361.789062zm0 328.246094h22.867188c5.539062 0 10.027343-4.488282 10.027343-10.027344 0-5.539063-4.488281-10.03125-10.027343-10.03125h-22.867188v-185.6875h22.867188c5.539062 0 10.03125-4.492188 10.03125-10.027344 0-5.539062-4.492188-10.03125-10.03125-10.03125h-22.867188v-27.914062h280.496094l-47.09375 62.167968c-.035156.042969-.058594.09375-.089844.136719-.230469.3125-.441406.632813-.632812.972656-.019532.03125-.042969.066407-.0625.097657-.203126.371093-.382813.757812-.539063 1.152343-.03125.078125-.058594.15625-.085937.238281-.121094.328126-.226563.664063-.3125 1.007813-.023438.082031-.042969.164063-.0625.246094-.09375.402343-.164063.816406-.203126 1.234375-.003906.058594-.003906.113281-.007812.171875-.023438.261719-.042969.527343-.042969.796875v203.542968h-22.867187c-5.539063 0-10.03125 4.488282-10.03125 10.027344 0 5.539063 4.492187 10.03125 10.03125 10.03125h22.867187v14.621094h-231.363281zm308.339844 52.730468v-105.304687h49.890625v105.300781h-49.890625zm0 0"/><path d="m181.132812 279.703125h32.898438c5.539062 0 10.03125-4.492187 10.03125-10.03125 0-5.535156-4.492188-10.027344-10.03125-10.027344h-32.898438c-5.539062 0-10.027343 4.492188-10.027343 10.027344 0 5.539063 4.488281 10.03125 10.027343 10.03125zm0 0"/><path d="m53.871094 286.914062h32.902344c5.539062 0 10.027343-4.492187 10.027343-10.03125 0-5.539062-4.488281-10.027343-10.027343-10.027343h-32.902344c-5.539063 0-10.027344 4.488281-10.027344 10.027343 0 5.539063 4.488281 10.03125 10.027344 10.03125zm0 0"/><path d="m102.167969 248.878906h32.898437c5.539063 0 10.027344-4.492187 10.027344-10.03125 0-5.539062-4.488281-10.027344-10.027344-10.027344h-32.898437c-5.539063 0-10.03125 4.488282-10.03125 10.027344 0 5.539063 4.492187 10.03125 10.03125 10.03125zm0 0"/><path d="m200.992188 421.523438h-32.898438c-5.539062 0-10.03125 4.492187-10.03125 10.03125 0 5.535156 4.492188 10.027343 10.03125 10.027343h32.898438c5.535156 0 10.027343-4.492187 10.027343-10.027343 0-5.539063-4.492187-10.03125-10.027343-10.03125zm0 0"/><path d="m195.210938 228.175781h32.898437c5.539063 0 10.03125-4.492187 10.03125-10.03125 0-5.539062-4.492187-10.027343-10.03125-10.027343h-32.898437c-5.539063 0-10.027344 4.488281-10.027344 10.027343 0 5.539063 4.488281 10.03125 10.027344 10.03125zm0 0"/><path d="m99.796875 453.304688h-32.898437c-5.539063 0-10.03125 4.492187-10.03125 10.03125 0 5.535156 4.492187 10.027343 10.03125 10.027343h32.898437c5.535156 0 10.027344-4.492187 10.027344-10.027343 0-5.539063-4.488281-10.03125-10.027344-10.03125zm0 0"/><path d="m231.019531 389.933594v-75.753906c0-5.539063-4.492187-10.03125-10.03125-10.03125h-62.882812c-5.535157 0-10.027344 4.492187-10.027344 10.03125 0 5.535156 4.492187 10.027343 10.027344 10.027343h52.851562v55.695313h-150.480469v-55.695313h7.839844c5.539063 0 10.03125-4.492187 10.03125-10.027343 0-5.539063-4.492187-10.03125-10.03125-10.03125h-17.871094c-5.535156 0-10.027343 4.492187-10.027343 10.03125v75.753906c0 5.539062 4.492187 10.03125 10.027343 10.03125h170.542969c5.539063 0 10.03125-4.492188 10.03125-10.03125zm0 0"/><path d="m120.222656 116.8125c-1.328125-1.117188-2.949218-1.683594-4.820312-1.683594-2.195313 0-3.894532.363282-5.195313 1.109375-1.328125.761719-2.585937 2.242188-3.957031 4.648438l-3.757812 6.574219-3.761719-6.570313c-1.371094-2.410156-2.628907-3.886719-3.957031-4.652344-1.300782-.746093-3.003907-1.109375-5.199219-1.109375-1.867188 0-3.488281.566406-4.816407 1.6875-.996093.84375-2.1875 2.449219-2.1875 5.316406v34.878907c0 1.820312.9375 3.328125 2.636719 4.25 1.25.679687 2.71875 1.023437 4.367188 1.023437 1.648437 0 3.117187-.34375 4.367187-1.023437 1.699219-.921875 2.636719-2.433594 2.636719-4.25v-12.371094l.742187 1.359375c1.011719 1.949219 2.804688 3.027344 5.050782 3.027344 2.230468 0 4.0625-1.035156 5.164062-2.914063l.863282-1.472656v12.371094c0 1.820312.933593 3.328125 2.632812 4.25 1.25.679687 2.722656 1.023437 4.371094 1.023437 1.648437 0 3.117187-.34375 4.367187-1.023437 1.699219-.921875 2.636719-2.433594 2.636719-4.25v-34.878907c.003906-2.867187-1.1875-4.472656-2.183594-5.320312zm0 0"/><path d="m156.878906 119.523438c-.359375-1.128907-1.246094-2.691407-3.414062-3.722657-1.429688-.675781-3.0625-1.019531-4.851563-1.019531-1.792969 0-3.421875.34375-4.851562 1.019531-2.167969 1.03125-3.054688 2.59375-3.429688 3.753907l-10.722656 35.167968-.03125.121094c-.136719.53125-.191406.90625-.191406 1.246094 0 1.339844.539062 3.253906 3.113281 4.757812 1.632812.953125 3.367188 1.4375 5.160156 1.4375 3.960938 0 5.066406-2.453125 5.359375-3.519531l1.457031-5.359375h8.332032l1.457031 5.367188c.292969 1.058593 1.398437 3.511718 5.359375 3.511718 1.789062 0 3.527344-.480468 5.15625-1.4375 2.578125-1.503906 3.117188-3.417968 3.117188-4.757812 0-.339844-.054688-.695313-.191407-1.238282zm-9.191406 21.953124.925781-3.402343.925781 3.402343zm0 0"/><path d="m202.734375 142.730469c3.140625-2.023438 6.039063-5.78125 6.039063-12.757813 0-9.574218-5.925782-14.84375-16.691407-14.84375h-11.933593c-1.488282 0-2.800782.542969-3.792969 1.574219-.96875 1.003906-1.480469 2.265625-1.480469 3.640625v36.667969c0 1.820312.933594 3.328125 2.632812 4.25 1.25.679687 2.722657 1.023437 4.371094 1.023437 1.644532 0 3.117188-.34375 4.367188-1.023437 1.699218-.921875 2.636718-2.433594 2.636718-4.25v-10.9375l6.96875 13.53125c1.007813 1.953125 2.824219 3.027343 5.109376 3.027343 1.9375 0 3.765624-.695312 5.429687-2.070312 1.808594-1.492188 2.726563-3.210938 2.726563-5.105469 0-.886719-.21875-1.675781-.652344-2.34375zm-7.96875-11.890625c0 1.664062-.40625 2.171875-.53125 2.289062-.5.464844-1.445313.5625-2.152344.5625h-3.199219v-5.707031h3.199219c.707031 0 1.652344.097656 2.148438.5625.125.117187.535156.628906.535156 2.292969zm0 0"/><path d="m240.199219 136 8.328125-10.460938.078125-.105468c.691406-.96875 1.042969-2.039063 1.042969-3.1875 0-1.296875-.460938-3.230469-2.65625-5.066406-1.628907-1.359376-3.363282-2.050782-5.15625-2.050782-1.816407 0-3.394532.835938-4.410157 2.328125l-6.226562 8.820313v-5.933594c0-1.835938-.949219-3.339844-2.671875-4.242188-1.242188-.648437-2.699219-.976562-4.332032-.976562-1.632812 0-3.089843.328125-4.328124.976562-1.726563.898438-2.675782 2.40625-2.675782 4.242188v36.667969c0 1.820312.9375 3.328125 2.636719 4.246093 1.25.683594 2.71875 1.027344 4.367187 1.027344 1.648438 0 3.117188-.34375 4.367188-1.023437 1.699219-.925781 2.636719-2.433594 2.636719-4.25v-8.855469l7.644531 11.617188c1.140625 1.84375 3.003906 2.859374 5.242188 2.859374 1.898437 0 3.671874-.667968 5.277343-1.976562 2.191407-1.789062 2.652344-3.722656 2.652344-5.027344 0-.96875-.28125-1.910156-.871094-2.871094zm0 0"/><path d="m285.421875 127.984375c1.714844 0 3.175781-.828125 4.113281-2.328125.730469-1.171875 1.105469-2.570312 1.105469-4.15625 0-1.496094-.355469-2.839844-1.050781-4-.917969-1.53125-2.398438-2.371094-4.167969-2.371094h-20.523437c-1.550782 0-2.929688.371094-4.09375 1.101563-1.507813.941406-2.335938 2.421875-2.335938 4.171875v36.613281c0 1.75.832031 3.234375 2.332031 4.167969 1.167969.734375 2.546875 1.105468 4.097657 1.105468h20.523437c1.773437 0 3.25-.84375 4.167969-2.371093.695312-1.160157 1.050781-2.503907 1.050781-4 0-1.585938-.371094-2.984375-1.105469-4.15625-.941406-1.5-2.402344-2.328125-4.113281-2.328125h-12.945313v-4.785156h6.140626c1.722656 0 3.179687-.765626 4.105468-2.15625.738282-1.105469 1.113282-2.371094 1.113282-3.753907 0-1.476562-.394532-2.789062-1.167969-3.910156-.949219-1.363281-2.386719-2.113281-4.050781-2.113281h-6.140626v-4.726563h12.945313zm0 0"/><path d="m329.777344 125.660156c.730468-1.167968 1.101562-2.570312 1.101562-4.160156 0-1.5-.351562-2.847656-1.050781-4.011719-.917969-1.523437-2.398437-2.359375-4.164063-2.359375h-24.90625c-1.769531 0-3.246093.835938-4.167968 2.359375-.695313 1.160157-1.050782 2.507813-1.050782 4.011719 0 1.59375.371094 2.992188 1.105469 4.160156.9375 1.496094 2.398438 2.324219 4.113281 2.324219h5.449219v29.007813c0 1.820312.933594 3.332031 2.628907 4.261718 1.25.683594 2.722656 1.03125 4.375 1.03125 1.652343 0 3.121093-.347656 4.375-1.03125 1.695312-.929687 2.628906-2.445312 2.628906-4.261718v-29.007813h5.449218c1.710938 0 3.171876-.824219 4.113282-2.324219zm0 0"/><path d="m356.675781 436.035156c-2.070312-5.136718-7.914062-7.621094-13.050781-5.554687-5.140625 2.070312-7.625 7.914062-5.554688 13.054687l.132813.332032c1.574219 3.910156 5.335937 6.285156 9.308594 6.285156 1.246093 0 2.515625-.234375 3.742187-.730469 5.140625-2.070313 7.628906-7.914063 5.554688-13.050781zm0 0"/><path d="m456.976562 383.695312c-2.070312-5.140624-7.914062-7.625-13.050781-5.554687-5.140625 2.070313-7.625 7.914063-5.554687 13.050781l.132812.335938c1.574219 3.90625 5.335938 6.285156 9.308594 6.285156 1.246094 0 2.515625-.238281 3.742188-.730469 5.140624-2.070312 7.628906-7.917969 5.554687-13.054687zm0 0"/><path d="m109.699219 304.929688c-5.128907 2.082031-7.601563 7.933593-5.519531 13.066406l.136718.332031c1.578125 3.898437 5.332032 6.261719 9.296875 6.261719 1.253907 0 2.53125-.238282 3.769531-.738282 5.128907-2.085937 7.601563-7.933593 5.519532-13.066406l-.136719-.332031c-2.082031-5.136719-7.929687-7.605469-13.066406-5.523437zm0 0"/><path d="m318.371094 328.683594c-5.539063 0-10.03125 4.492187-10.03125 10.03125 0 5.539062 4.492187 10.03125 10.03125 10.03125h66.917968c5.539063 0 10.027344-4.492188 10.027344-10.03125 0-5.539063-4.488281-10.03125-10.027344-10.03125zm0 0"/></svg>