<svg height="640pt" viewBox="-110 -20 640 640" width="640pt" xmlns="http://www.w3.org/2000/svg"><path d="m413.960938 109.820312c-.03125-1.164062-.257813-2.3125-.679688-3.390624-.109375-.292969-.261719-.53125-.390625-.800782-.164063-.398437-.355469-.789062-.570313-1.171875l-38.359374-57.457031v-37c0-5.523438-4.476563-10-10-10h-320c-5.523438 0-10 4.476562-10 10v37l-38.320313 57.484375c-.214844.375-.40625.765625-.570313 1.164063-.128906.269531-.28125.523437-.390624.800781-.421876 1.082031-.65625 2.226562-.679688 3.390625v460.160156c0 16.566406 13.433594 30 30 30h359.960938c16.566406 0 30-13.433594 30-30v-460c0-.070312 0-.121094 0-.179688zm-20 70.179688h-380v-60h380zm-380 20h380v260h-380zm40-180h300v20h-300zm-4.652344 40h309.300781l26.671875 40h-362.628906zm344.652344 510c0 5.523438-4.476563 10-10 10h-360c-5.523438 0-10-4.476562-10-10v-90h380zm0 0"/><path d="m95.738281 250.160156c-4.753906-.863281-9.453125 1.800782-11.148437 6.328125l-20.628906 55.03125-20.628907-55c-1.691406-4.53125-6.382812-7.203125-11.136719-6.347656-4.761718.851563-8.230468 4.992187-8.234374 9.828125v120c0 5.523438 4.476562 10 10 10 5.523437 0 10-4.476562 10-10v-64.847656l10.628906 28.367187c1.460937 3.90625 5.195312 6.496094 9.367187 6.496094 4.167969 0 7.898438-2.589844 9.363281-6.496094l10.640626-28.367187v64.847656c0 5.523438 4.476562 10 10 10 5.523437 0 10-4.476562 10-10v-120c0-4.835938-3.460938-8.980469-8.222657-9.839844zm0 0"/><path d="m283.960938 370h-50v-110c0-5.523438-4.476563-10-10-10-5.523438 0-10 4.476562-10 10v120c0 5.523438 4.476562 10 10 10h60c5.523437 0 10-4.476562 10-10s-4.476563-10-10-10zm0 0"/><path d="m379.507812 251.679688c-4.59375-3.066407-10.800781-1.828126-13.867187 2.769531l-37.03125 55.550781h-4.648437v-50c0-5.523438-4.476563-10-10-10-5.523438 0-10 4.476562-10 10v120c0 5.523438 4.476562 10 10 10 5.523437 0 10-4.476562 10-10v-50h4.648437l37 55.550781c3.101563 4.484375 9.230469 5.65625 13.773437 2.628907 4.535157-3.023438 5.8125-9.125 2.867188-13.722657l-36.292969-54.457031 36.304688-54.449219c3.066406-4.589843 1.835937-10.800781-2.753907-13.871093zm0 0"/><path d="m183.960938 270c5.523437 0 10-4.476562 10-10s-4.476563-10-10-10h-60c-5.523438 0-10 4.476562-10 10s4.476562 10 10 10h20v100h-20c-5.523438 0-10 4.476562-10 10s4.476562 10 10 10h60c5.523437 0 10-4.476562 10-10s-4.476563-10-10-10h-20v-100zm0 0"/></svg>