<?xml version="1.0" encoding="iso-8859-1"?>
<!-- Generator: Adobe Illustrator 18.0.0, SVG Export Plug-In . SVG Version: 6.00 Build 0)  -->
<!DOCTYPE svg PUBLIC "-//W3C//DTD SVG 1.1//EN" "http://www.w3.org/Graphics/SVG/1.1/DTD/svg11.dtd">
<svg version="1.1" id="Capa_1" xmlns="http://www.w3.org/2000/svg" xmlns:xlink="http://www.w3.org/1999/xlink" x="0px" y="0px"
	 viewBox="0 0 57.385 57.385" style="enable-background:new 0 0 57.385 57.385;" xml:space="preserve">
<g>
	<path d="M46.885,5.693h-29c-5.641,0-10.416,3.758-11.966,8.9l-3.045-2.284c-0.627-0.472-1.448-0.485-2.094-0.042
		c-0.645,0.443-0.923,1.217-0.708,1.97l1.245,4.357l-0.922,1.844c-0.332,0.664-0.226,1.449,0.271,2.002
		c0.349,0.387,0.832,0.595,1.329,0.595c0.212,0,0.427-0.038,0.635-0.115l3.264-1.224c1.519,5.191,6.315,8.998,11.991,8.998h29
		c6.379,0,10.5-4.906,10.5-12.5S53.264,5.693,46.885,5.693z M5.483,19.713l-3.064,1.149l0.724-1.446
		c0.201-0.402,0.243-0.862,0.12-1.295l-1.099-3.846l3.31,2.483c-0.054,0.471-0.089,0.948-0.089,1.434
		c0,0.499,0.037,0.988,0.094,1.471C5.482,19.68,5.481,19.696,5.483,19.713z M17.885,28.693c-5.023,0-9.228-3.547-10.255-8.266
		L7.58,20.172c-0.064-0.331-0.113-0.662-0.145-0.99c-0.031-0.326-0.05-0.656-0.05-0.99c0-0.289,0.02-0.573,0.043-0.857
		c0.026-0.272,0.061-0.554,0.111-0.853l0.081-0.487c1.013-4.738,5.229-8.303,10.265-8.303h22.819c-0.387,0.3-0.745,0.639-1.084,1
		h-9.766c-0.553,0-1,0.447-1,1s0.447,1,1,1h8.297c-0.181,0.32-0.348,0.653-0.503,1H19.854c-0.553,0-1,0.447-1,1s0.447,1,1,1H36.95
		c-0.364,1.364-0.565,2.865-0.565,4.5s0.202,3.136,0.565,4.5h-9.838c-0.553,0-1,0.447-1,1s0.447,1,1,1h10.535
		c0.154,0.347,0.322,0.68,0.503,1h-8.188c-0.553,0-1,0.447-1,1s0.447,1,1,1h9.657c0.34,0.361,0.697,0.7,1.084,1H17.885z
		 M46.885,28.693c-6.267,0-8.5-5.424-8.5-10.5s2.233-10.5,8.5-10.5s8.5,5.424,8.5,10.5S53.152,28.693,46.885,28.693z"/>
	<path d="M49.482,18.594c-0.431,0.008-0.785,0.418-0.785,0.916s0.355,0.882,0.785,0.858c0.423-0.023,0.76-0.433,0.76-0.915
		C50.242,18.97,49.905,18.586,49.482,18.594z"/>
	<path d="M43.385,20.707c-0.548,0.03-1,0.511-1,1.074s0.452,0.977,1,0.926c0.537-0.05,0.964-0.529,0.964-1.072
		S43.922,20.677,43.385,20.707z"/>
	<path d="M43.385,13.707c0.537,0.04,0.964-0.368,0.964-0.911c0-0.542-0.427-1.03-0.964-1.089c-0.548-0.061-1,0.345-1,0.907
		S42.838,13.666,43.385,13.707z"/>
	<path d="M50.979,22.863c-0.404,0.045-0.737,0.473-0.737,0.955s0.333,0.824,0.737,0.764c0.397-0.059,0.714-0.485,0.714-0.952
		C51.693,23.162,51.376,22.819,50.979,22.863z"/>
	<path d="M47.046,22.368c-0.96,0.089-1.766,1.028-1.766,2.094c0,1.066,0.806,1.795,1.766,1.635c0.925-0.154,1.65-1.082,1.65-2.078
		C48.697,23.022,47.971,22.282,47.046,22.368z"/>
	<path d="M47.885,13.123c0.895,0.083,1.597-0.646,1.597-1.626c0-0.98-0.702-1.891-1.597-2.04c-0.928-0.155-1.707,0.564-1.707,1.612
		C46.179,12.116,46.957,13.037,47.885,13.123z"/>
	<path d="M43.385,17.707c0,1.104,0.865,1.968,1.895,1.93c0.991-0.037,1.766-0.9,1.766-1.93c0-1.03-0.776-1.893-1.766-1.93
		C44.251,15.739,43.385,16.602,43.385,17.707z"/>
	<path d="M51.339,13.443c-0.599-0.055-1.096,0.485-1.096,1.208s0.497,1.328,1.096,1.35c0.584,0.022,1.047-0.521,1.047-1.211
		S51.923,13.497,51.339,13.443z"/>
	<path d="M29.692,38.662c-1.563-3.301-5.527-5.194-10.877-5.194c-5.349,0-9.313,1.894-10.877,5.194
		c-0.886,1.87-0.802,3.379-0.415,4.505c-0.502,1.717-0.27,3.339,0.7,4.709c1.717,2.426,5.577,3.816,10.592,3.816
		s8.875-1.392,10.593-3.817c0.969-1.37,1.202-2.992,0.7-4.709C30.494,42.04,30.577,40.531,29.692,38.662z M9.744,39.519
		c1.732-3.656,6.92-4.051,9.07-4.051s7.339,0.395,9.07,4.05c0.57,1.205,0.649,2.288,0.242,3.23
		c-0.047,0.108-0.103,0.212-0.162,0.316c-0.017,0.03-0.031,0.061-0.049,0.091c-0.022,0.036-0.05,0.07-0.073,0.105
		c-0.145,0.219-0.31,0.43-0.508,0.628c-0.011,0.011-0.023,0.021-0.034,0.031c-0.195,0.192-0.419,0.373-0.662,0.544
		c-0.034,0.024-0.064,0.049-0.099,0.073c-0.239,0.162-0.504,0.31-0.783,0.452c-0.064,0.032-0.125,0.065-0.19,0.097
		c-0.275,0.13-0.57,0.25-0.879,0.361c-0.085,0.031-0.17,0.061-0.258,0.09c-0.315,0.105-0.645,0.199-0.99,0.284
		c-0.094,0.023-0.188,0.045-0.284,0.066c-0.362,0.081-0.737,0.153-1.128,0.213c-0.083,0.012-0.168,0.023-0.252,0.035
		c-0.419,0.057-0.85,0.105-1.298,0.137c-0.053,0.004-0.109,0.006-0.163,0.009c-0.487,0.031-0.985,0.05-1.502,0.05
		c-0.516,0-1.015-0.019-1.501-0.05c-0.054-0.003-0.11-0.005-0.164-0.009c-0.448-0.032-0.877-0.08-1.296-0.137
		c-0.085-0.012-0.171-0.022-0.255-0.035c-0.389-0.059-0.762-0.131-1.123-0.211c-0.098-0.022-0.195-0.044-0.291-0.068
		c-0.342-0.084-0.67-0.178-0.982-0.282c-0.091-0.03-0.179-0.062-0.267-0.094c-0.305-0.11-0.597-0.228-0.869-0.357
		c-0.07-0.033-0.134-0.068-0.202-0.102c-0.275-0.14-0.536-0.286-0.772-0.445c-0.039-0.026-0.073-0.055-0.111-0.082
		c-0.235-0.167-0.452-0.342-0.643-0.528c-0.018-0.018-0.037-0.034-0.055-0.052c-0.19-0.192-0.351-0.396-0.491-0.608
		c-0.027-0.041-0.059-0.079-0.083-0.12c-0.01-0.017-0.017-0.034-0.027-0.051c-0.068-0.116-0.13-0.235-0.183-0.356
		C9.096,41.801,9.176,40.719,9.744,39.519z M27.775,46.72c-1.317,1.861-4.667,2.973-8.96,2.973s-7.642-1.111-8.959-2.972
		c-0.217-0.307-0.375-0.631-0.473-0.973c0.042,0.035,0.094,0.064,0.137,0.098c0.145,0.114,0.3,0.221,0.457,0.328
		c0.159,0.107,0.324,0.21,0.495,0.31c0.18,0.105,0.359,0.208,0.552,0.305c0.18,0.09,0.374,0.171,0.565,0.253
		c0.312,0.135,0.637,0.26,0.978,0.374c0.266,0.089,0.531,0.179,0.813,0.255c0.212,0.057,0.435,0.103,0.656,0.153
		c0.268,0.061,0.538,0.119,0.818,0.169c0.217,0.038,0.437,0.073,0.661,0.104c0.329,0.047,0.667,0.084,1.011,0.117
		c0.193,0.018,0.382,0.039,0.579,0.052c0.554,0.038,1.12,0.062,1.708,0.062c0.588,0,1.155-0.024,1.709-0.062
		c0.196-0.013,0.383-0.034,0.574-0.052c0.347-0.032,0.688-0.07,1.02-0.118c0.221-0.031,0.439-0.065,0.653-0.103
		c0.286-0.051,0.561-0.11,0.833-0.172c0.215-0.049,0.434-0.094,0.641-0.15c0.303-0.082,0.589-0.177,0.872-0.274
		c0.316-0.107,0.616-0.225,0.907-0.35c0.198-0.085,0.398-0.169,0.585-0.262c0.19-0.095,0.368-0.198,0.545-0.301
		c0.173-0.101,0.34-0.205,0.501-0.313c0.157-0.106,0.311-0.213,0.456-0.327c0.044-0.034,0.095-0.064,0.138-0.099
		C28.149,46.09,27.991,46.413,27.775,46.72z"/>
	<path d="M16.036,41.547c-0.042,0.409,0.356,0.751,0.89,0.751c0.534,0,0.975-0.342,0.983-0.751c0.008-0.395-0.392-0.704-0.893-0.704
		S16.076,41.152,16.036,41.547z"/>
	<path d="M15.627,37.887c0.434,0,0.809-0.227,0.837-0.499c0.027-0.264-0.285-0.473-0.697-0.473c-0.412,0-0.784,0.209-0.833,0.473
		C14.883,37.661,15.193,37.887,15.627,37.887z"/>
	<path d="M22.699,37.887c0.434,0,0.725-0.226,0.652-0.498c-0.071-0.264-0.46-0.473-0.872-0.473s-0.707,0.209-0.658,0.473
		C21.872,37.661,22.265,37.887,22.699,37.887z"/>
	<path d="M13.315,42.304c-0.534,0-1.076,0.353-1.215,0.802c-0.144,0.467,0.198,0.859,0.771,0.859s1.125-0.392,1.231-0.859
		C14.203,42.657,13.85,42.304,13.315,42.304z"/>
	<path d="M12.478,40.843c1.002,0,1.925-0.595,2.053-1.286c0.12-0.648-0.511-1.144-1.403-1.144c-0.892,0-1.789,0.496-2.015,1.144
		C10.871,40.248,11.476,40.843,12.478,40.843z"/>
	<path d="M23.219,40.18c0.166,0.734,1.148,1.367,2.183,1.367s1.626-0.633,1.339-1.367c-0.269-0.687-1.218-1.211-2.135-1.211
		S23.064,39.494,23.219,40.18z"/>
	<path d="M18.805,39.557c0.944,0,1.655-0.528,1.591-1.144c-0.06-0.579-0.791-1.024-1.636-1.024c-0.845,0-1.558,0.445-1.594,1.024
		C17.128,39.029,17.861,39.557,18.805,39.557z"/>
	<path d="M22.673,44.881c0.89,0,1.469-0.626,1.303-1.359c-0.157-0.691-0.927-1.224-1.729-1.224s-1.396,0.533-1.325,1.224
		C20.998,44.255,21.783,44.881,22.673,44.881z"/>
</g>
<g>
</g>
<g>
</g>
<g>
</g>
<g>
</g>
<g>
</g>
<g>
</g>
<g>
</g>
<g>
</g>
<g>
</g>
<g>
</g>
<g>
</g>
<g>
</g>
<g>
</g>
<g>
</g>
<g>
</g>
</svg>
