<svg height="512pt" viewBox="-98 0 512 512" width="512pt" xmlns="http://www.w3.org/2000/svg"><path d="m316.824219 512-33.925781-324.554688h19.375v-90.640624h-26.613282c-10.546875-55.0625-59.105468-96.804688-117.246094-96.804688-58.144531 0-106.699218 41.742188-117.25 96.804688h-26.613281v90.640624h19.375l-33.925781 324.554688zm-272.300781-385.226562h227.78125v30.703124h-227.78125zm113.890624-96.800782c41.53125 0 76.542969 28.429688 86.542969 66.832032h-173.089843c10-38.402344 45.011718-66.832032 86.546874-66.832032zm94.351563 157.472656 30.792969 294.582032h-250.292969l30.792969-294.582032zm0 0"/><path d="m238.578125 320.886719-20.625 13.921875c-2.6875 1.730468-25.546875 15.308594-49.207031-7.222656-17.703125-16.867188-39.359375-22.347657-60.976563-15.441407-15.402343 4.925781-25.574219 14.425781-26.683593 15.492188l-3.941407 3.792969-13.023437 124.566406h188.578125zm-141.1875 105.136719 8.339844-79.777344c2.664062-1.820313 6.550781-4.078125 11.164062-5.554688 11.167969-3.570312 21.367188-.757812 31.183594 8.59375 22.546875 21.480469 47.070313 23.429688 65.347656 19.257813l6.007813 57.480469zm0 0"/><path d="m90.976562 219.953125h29.222657v29.21875h-29.222657zm0 0"/><path d="m129.191406 259.996094h29.222656v29.222656h-29.222656zm0 0"/><path d="m120.199219 380.753906h29.222656v29.222656h-29.222656zm0 0"/></svg>