<svg height="648pt" viewBox="-20 -111 648.0003 648" width="648pt" xmlns="http://www.w3.org/2000/svg"><path d="m606.226562 324.917969c.6875-1.066407 1.085938-2.296875 1.160157-3.5625.097656-.617188.128906-1.246094.105469-1.867188-.0625-.679687-.203126-1.347656-.410157-1.996093-.058593-.449219-.15625-.886719-.277343-1.320313-.09375-.199219-.257813-.316406-.359376-.507813-.097656-.191406-.097656-.417968-.210937-.609374l-186.265625-316.304688c-.25-.3125-.515625-.609375-.800781-.886719-1.511719-2.097656-3.828125-3.46875-6.390625-3.78125-.660156-.105469-1.328125-.144531-1.996094-.117187-.640625.050781-1.273438.164062-1.886719.339844-.410156.046874-.816406.121093-1.210937.222656l-221.523438 86.699218c-.46875.246094-.917968.535157-1.335937.855469h-.074219c-.8125.457031-1.566406 1.019531-2.222656 1.679688-.558594.539062-1.039063 1.152343-1.429688 1.820312l-179.773437 319.597657c-1.78125 3.105468-1.761719 6.921874.042969 10.007812 1.808593 3.085938 5.128906 4.972656 8.703124 4.945312h359.550782c.355468-.023437.71875-.074218 1.066406-.140624.324219 0 .621094.140624.941406.140624 1.242188.003907 2.46875-.230468 3.625-.679687l226.339844-90.117187c.125-.0625.21875-.179688.34375-.242188.132812-.058594.53125-.175781.78125-.328125.355469-.28125.6875-.589844 1-.921875.527344-.382812 1.019531-.824219 1.457031-1.304688.40625-.503906.757813-1.042968 1.050781-1.621093zm-225.5-255.996094 36.953126 19.714844-1.515626 41.859375c-.140624 3.8125 1.90625 7.367187 5.273438 9.167968l36.890625 19.667969-1.476563 41.816407c-.132812 3.808593 1.910157 7.359374 5.277344 9.160156l36.949219 19.710937-1.457031 41.835938c-.136719 3.808593 1.90625 7.359375 5.261718 9.160156l36.957032 19.765625-1.164063 33.371094-18.574219 7.261718-173.523437-301.476562 29.964844-11.738281-1.117188 31.5625c-.128906 3.816406 1.929688 7.371093 5.300781 9.160156zm51.9375 306.617187-173.535156-301.386718 36.148438-14.140625-1.074219 30.960937c-.132813 3.804688 1.910156 7.351563 5.265625 9.148438l36.953125 19.765625-1.46875 41.839843c-.132813 3.808594 1.910156 7.363282 5.277344 9.15625l36.949219 19.707032-1.507813 41.78125c-.136719 3.808594 1.910156 7.367187 5.273437 9.167968l36.898438 19.660157-1.480469 41.820312c-.136719 3.808594 1.914063 7.363281 5.273438 9.15625l36.957031 19.707031-1.210938 34.015626zm-58.238281 22.769532-170.246093-302.617188 36.144531-14.132812 173.535156 301.351562zm99.066407-81.109375-36.953126-19.703125 1.476563-41.816406c.136719-3.8125-1.910156-7.375-5.273437-9.167969l-36.894532-19.667969 1.476563-41.816406c.132812-3.808594-1.910157-7.363282-5.269531-9.160156l-36.957032-19.714844 1.46875-41.828125c.136719-3.804688-1.90625-7.359375-5.261718-9.160157l-36.957032-19.765624 1.152344-33.304688 12.253906-4.796875 173.535156 301.425781-23.671874 9.257813 1.117187-31.621094c.140625-3.800781-1.894531-7.355469-5.242187-9.160156zm-446.34375 82.957031 162.699218-289.238281 162.695313 289.238281zm531.785156-74.199219 1.070312-30.746093c.132813-3.804688-1.914062-7.355469-5.261718-9.148438l-36.957032-19.765625 1.457032-41.835937c.132812-3.808594-1.910157-7.367188-5.269532-9.160157l-36.957031-19.714843 1.476563-41.820313c.136718-3.8125-1.90625-7.367187-5.269532-9.167969l-36.894531-19.667968 1.480469-41.816407c.128906-3.808593-1.914063-7.359375-5.277344-9.160156l-36.949219-19.710937 1.203125-33.960938 10.25-3.996094 176.25 299.179688zm0 0"/></svg>