<svg height="512pt" viewBox="-151 0 512 512" width="512pt" xmlns="http://www.w3.org/2000/svg"><path d="m30.386719 337.5v122.972656c0 10.753906 8.75 19.503906 19.5 19.503906h110.949219c10.753906 0 19.503906-8.75 19.503906-19.503906v-122.972656c0-10.75-8.75-19.5-19.503906-19.5h-110.945313c-10.753906 0-19.503906 8.75-19.503906 19.5zm130.449219 127.476562h-110.949219c-2.4375 0-4.5-2.0625-4.5-4.5v-91.214843h119.949219v91.214843c.003906 2.4375-2.058594 4.5-4.5 4.5zm-.023438-131.976562c2.453125 0 4.523438 2.074219 4.523438 4.527344v16.734375h-119.949219v-16.734375c0-2.453125 2.074219-4.527344 4.523437-4.527344zm0 0"/><path d="m142.914062 382.988281h-75.105468c-4.140625 0-7.5 3.359375-7.5 7.5 0 4.144531 3.359375 7.5 7.5 7.5h75.105468c4.144532 0 7.503907-3.355469 7.503907-7.5 0-4.140625-3.359375-7.5-7.503907-7.5zm0 0"/><path d="m142.914062 409.542969h-75.105468c-4.140625 0-7.5 3.359375-7.5 7.5 0 4.144531 3.359375 7.5 7.5 7.5h75.105468c4.144532 0 7.503907-3.355469 7.503907-7.5 0-4.140625-3.359375-7.5-7.503907-7.5zm0 0"/><path d="m142.914062 436.097656h-75.105468c-4.140625 0-7.5 3.359375-7.5 7.503906 0 4.140626 3.359375 7.5 7.5 7.5h75.105468c4.144532 0 7.503907-3.359374 7.503907-7.5 0-4.144531-3.359375-7.503906-7.503907-7.503906zm0 0"/><path d="m50.367188 291.875c3.199218 2.734375 7.183593 4.203125 11.347656 4.199219.46875 0 .9375-.015625 1.40625-.054688 4.667968-.367187 8.910156-2.53125 11.949218-6.089843 7.605469-8.90625 18.644532-14.015626 30.292969-14.015626 11.644531 0 22.6875 5.109376 30.292969 14.015626 3.332031 3.90625 8.191406 6.144531 13.328125 6.144531 4.167969 0 8.207031-1.488281 11.375-4.195313 3.558594-3.039062 5.722656-7.285156 6.089844-11.949218.367187-4.664063-1.105469-9.195313-4.144531-12.753907-14.273438-16.714843-35.027344-26.304687-56.941407-26.304687-21.914062 0-42.667969 9.589844-56.941406 26.304687-3.042969 3.558594-4.511719 8.089844-4.144531 12.753907.367187 4.667968 2.53125 8.910156 6.089844 11.945312zm9.460937-14.957031c11.417969-13.375 28.015625-21.046875 45.535156-21.046875s34.113281 7.671875 45.535157 21.046875c.589843.691406.625 1.445312.597656 1.832031-.03125.390625-.1875 1.132812-.878906 1.722656-.582032.5-1.210938.601563-1.632813.601563-.433594 0-1.261719-.113281-1.917969-.882813-10.464844-12.25-25.660156-19.277344-41.703125-19.277344s-31.242187 7.027344-41.703125 19.277344c-.589844.691406-1.328125.84375-1.71875.875-.390625.027344-1.140625-.007812-1.832031-.59375-.691406-.589844-.847656-1.332031-.878906-1.722656-.027344-.386719.007812-1.140625.597656-1.832031zm0 0"/><path d="m203.226562 397.988281c4.140626 0 7.5-3.355469 7.5-7.5v-33.820312c0-36.644531-7.535156-72.148438-22.394531-105.527344-31.207031-70.105469-35.867187-93.230469-35.867187-100.777344v-71.699219c7.574218-2.6875 13.019531-9.902343 13.019531-18.386718v-40.753906c0-10.765626-8.757813-19.523438-19.523437-19.523438h-81.195313c-10.765625 0-19.523437 8.757812-19.523437 19.523438v40.753906c0 8.484375 5.445312 15.699218 13.019531 18.386718v71.699219c0 7.546875-4.660157 30.671875-35.871094 100.777344-14.855469 33.378906-22.390625 68.882813-22.390625 105.527344v115.84375c0 21.773437 17.714844 39.488281 39.488281 39.488281h131.75c21.773438 0 39.488281-17.714844 39.488281-39.488281v-47.019531c0-4.144532-3.359374-7.5-7.5-7.5-4.144531 0-7.5 3.355468-7.5 7.5v47.019531c0 13.503906-10.984374 24.488281-24.488281 24.488281h-131.75c-13.503906 0-24.488281-10.984375-24.488281-24.488281v-115.84375c0-34.53125 7.097656-67.980469 21.097656-99.425781 22.925782-51.496094 35.335938-86.183594 36.972656-103.28125h14.632813c4.140625 0 7.5-3.359376 7.5-7.503907 0-4.140625-3.359375-7.5-7.5-7.5h-14.441406v-59.152343h64.203125v59.152343h-14.761719c-4.140625 0-7.5 3.359375-7.5 7.5 0 4.144531 3.359375 7.503907 7.5 7.503907h14.957031c1.632813 17.097656 14.046875 51.785156 36.96875 103.28125 14 31.445312 21.097656 64.894531 21.097656 99.425781v33.820312c0 4.144531 3.355469 7.5 7.5 7.5zm-85.945312-382.988281c-.632812 6.015625-5.738281 10.71875-11.917969 10.71875-6.183593 0-11.285156-4.703125-11.917969-10.71875zm-57.039062 4.523438c0-2.453126 2.070312-4.523438 4.523437-4.523438h13.644531c.664063 14.296875 12.496094 25.722656 26.953125 25.722656 14.453125 0 26.289063-11.425781 26.953125-25.722656h13.644532c2.449218 0 4.523437 2.074219 4.523437 4.523438v40.753906c0 2.453125-2.074219 4.523437-4.523437 4.523437h-81.195313c-2.453125 0-4.523437-2.070312-4.523437-4.523437zm0 0"/></svg>