<svg height="638pt" viewBox="-20 -20 638 638.66659" width="638pt" xmlns="http://www.w3.org/2000/svg"><path d="m299.625 169.5625c-34.421875-.117188-67.464844 13.539062-91.757812 37.929688-3.78125 3.917968-3.730469 10.144531.121093 13.992187 3.851563 3.851563 10.082031 3.90625 13.996094.125 42.914063-42.8125 112.378906-42.8125 155.296875 0 3.914062 3.78125 10.140625 3.726563 13.992188-.125 3.851562-3.847656 3.90625-10.074219.121093-13.992187-24.292969-24.394532-57.339843-38.054688-91.769531-37.929688zm0 0"/><path d="m594.105469 170.820312-67.082031-40.132812-13.199219-39.230469c-.992188-2.960937-3.316407-5.285156-6.277344-6.277343l-39.21875-13.210938-40.148437-67.105469c-1.894532-3.132812-5.332032-4.988281-8.988282-4.8554685-3.640625.1406255-6.914062 2.2617185-8.542968 5.5195315l-65.171876 130.535156c-14.921874-4.207031-30.347656-6.351562-45.851562-6.382812-93.722656 0-169.703125 75.980468-169.703125 169.699218.035156 15.5 2.179687 30.925782 6.382813 45.839844l-130.542969 65.214844c-3.253907 1.640625-5.359375 4.925781-5.492188 8.566406-.128906 3.644531 1.738281 7.070312 4.875 8.933594l67.082031 40.140625 13.195313 39.230469c1 2.957031 3.320313 5.285156 6.28125 6.277343l39.21875 13.195313 40.140625 67.113281c1.800781 3.015625 5.058594 4.863281 8.574219 4.859375h.378906c3.644531-.140625 6.921875-2.257812 8.542969-5.519531l65.207031-130.53125c14.925781 4.207031 30.351563 6.351562 45.859375 6.382812 93.726562 0 169.699219-75.980469 169.699219-169.703125-.027344-15.5-2.171875-30.921875-6.375-45.839844l130.527343-65.222656c3.265626-1.632812 5.378907-4.90625 5.515626-8.554687.136718-3.644531-1.726563-7.078125-4.855469-8.941407zm-415.265625 397.085938-32.671875-54.636719c-1.210938-2.046875-3.117188-3.589843-5.371094-4.359375l-38.03125-12.796875-12.773437-38.003906c-.753907-2.257813-2.292969-4.167969-4.335938-5.390625l-54.65625-32.652344 111.742188-55.828125c17.335937 41.554688 50.378906 74.597657 91.9375 91.9375zm226.648437-162.710938c-50.519531 50.5-129.671875 58.285157-189.0625 18.59375-59.386719-39.683593-82.472656-115.800781-55.136719-181.792968 27.335938-65.996094 97.484376-103.488282 167.542969-89.558594 70.058594 13.929688 120.523438 75.410156 120.527344 146.839844.109375 39.734375-15.683594 77.863281-43.859375 105.875zm51.003907-170.820312c-17.34375-41.558594-50.382813-74.601562-91.9375-91.9375l55.855468-111.78125 32.671875 54.628906c1.21875 2.042969 3.128907 3.582032 5.382813 4.34375l38.035156 12.800782 12.753906 38.023437c.761719 2.253906 2.300782 4.167969 4.34375 5.390625l54.652344 32.652344zm0 0"/></svg>