<svg height="512pt" viewBox="0 -61 512.00018 512" width="512pt" xmlns="http://www.w3.org/2000/svg"><path d="m286.804688 213.359375c17.101562 5.257813 49.101562-3.324219 67.738281-22.207031 2.839843-2.882813.929687-7.820313-3.113281-8.015625-23.703126-1.136719-52.75-12.207031-61.675782-19.996094zm0 0" fill="#7acefa"/><path d="m228.566406 119.296875c-44.117187 0-79.882812 35.765625-79.882812 79.882813 0 7.074218-.378906 13.765624-1.089844 20.113281-28.785156-13.726563-57.832031-34.125-70.914062-60.121094-2.410157-4.785156-9.332032-4.566406-11.375.382813-10.835938 26.265624-9.023438 49.960937 10.480468 72.148437-8.085937 1.867187-25.855468-2.832031-38.476562-11.835937-4.21875-3.015626-10.125.214843-9.835938 5.394531 1.859375 33.632812 22.914063 61.59375 68.796875 77.96875-22.808593 13.226562-51.007812 18.917969-80.335937 19.8125-7.5625.230469-11.222656 9.300781-5.894532 14.671875 22.28125 22.464844 72.785157 54.453125 158.25 41.25 130.335938-20.136719 140.160157-142.644532 140.160157-179.785156 0-44.117188-35.765625-79.882813-79.882813-79.882813zm0 0" fill="#a3defe"/><path d="m168.289062 378.964844c38.28125-5.914063 66.15625-20.664063 86.449219-39.488282-97.929687 14.550782-138.503906-66.765624-128.429687-131.652343-20.964844-12.757813-39.804688-29.125-49.628906-48.652344-2.410157-4.785156-9.332032-4.566406-11.375.382813-10.835938 26.265624-9.023438 49.960937 10.480468 72.148437-8.085937 1.867187-25.855468-2.832031-38.476562-11.835937-4.21875-3.015626-10.125.214843-9.835938 5.394531 1.859375 33.632812 22.914063 61.59375 68.796875 77.96875-22.808593 13.226562-51.003906 18.917969-80.335937 19.8125-7.5625.230469-11.222656 9.300781-5.894532 14.671875 22.277344 22.464844 72.785157 54.453125 158.25 41.25zm0 0" fill="#7acefa"/><path d="m261.515625 202.125c0-11.261719-11.464844-20.390625-25.605469-20.390625-14.144531 0-25.609375 9.128906-25.609375 20.390625 0 11.265625 11.464844 20.394531 25.609375 20.394531 14.140625 0 25.605469-9.128906 25.605469-20.394531zm0 0" fill="#fff"/><path d="m351.53125 125.890625-5.300781 28.148437c-1.308594 6.949219 4.785156 13.039063 11.734375 11.730469l28.144531-5.300781c2.15625-.40625 4.386719-.183594 6.398437.6875 10.054688 4.367188 21.183594 6.730469 32.878907 6.585938 44.03125-.542969 79.113281-36.082032 79.113281-80.117188 0-44.25-35.871094-80.125-80.121094-80.125-44.035156 0-79.574218 35.082031-80.117187 79.113281-.144531 11.695313 2.21875 22.824219 6.582031 32.882813.871094 2.007812 1.09375 4.242187.6875 6.394531zm0 0" fill="#fcf2d0"/><path d="m351.53125 125.890625-5.300781 28.148437c-1.308594 6.949219 4.785156 13.039063 11.734375 11.730469l28.144531-5.300781c2.15625-.40625 4.386719-.183594 6.398437.6875 10.058594 4.367188 21.183594 6.730469 32.878907 6.585938 31.363281-.386719 58.175781-18.539063 71.011719-44.859376-91.148438 15.152344-127.289063-59.910156-100.871094-110.054687-29.738282 11.398437-50.847656 39.9375-51.265625 73.785156-.144531 11.695313 2.21875 22.824219 6.582031 32.882813.871094 2.007812 1.09375 4.242187.6875 6.394531zm0 0" fill="#f6e3a3"/><path d="m246.144531 179.9375c0-2.585938 2.105469-4.691406 4.691407-4.691406 2.585937 0 4.6875 2.105468 4.6875 4.691406 0 4.140625 3.355468 7.5 7.5 7.5 4.140624 0 7.5-3.359375 7.5-7.5 0-10.855469-8.832032-19.6875-19.6875-19.6875-10.855469 0-19.691407 8.832031-19.691407 19.6875 0 4.140625 3.359375 7.5 7.5 7.5 4.144531 0 7.5-3.359375 7.5-7.5zm105.648438-4.292969c-15.101563-.722656-31.765625-5.746093-42.652344-10.269531-13.242187-31.445312-44.371094-53.578125-80.574219-53.578125-48.183594 0-87.378906 39.199219-87.378906 87.382813 0 2.820312-.066406 5.621093-.195312 8.386718-27.929688-14.90625-48.199219-33.054687-57.613282-51.769531-2.457031-4.878906-7.371094-7.796875-12.832031-7.578125-5.4375.203125-10.101563 3.449219-12.175781 8.476562-10.101563 24.484376-9.601563 46.175782 1.609375 65.851563-5.945313-1.789063-12.628907-4.726563-18.316407-8.785156-4.324218-3.089844-9.914062-3.40625-14.589843-.835938-4.667969 2.570313-7.382813 7.453125-7.09375 12.75 2.285156 41.3125 30.128906 64.851563 58.046875 78.121094-17.425782 7.074219-38.308594 11.019531-62.324219 11.75-6.542969.199219-12.109375 4.089844-14.527344 10.148437-2.410156 6.042969-1.054687 12.671876 3.539063 17.300782 4.214844 4.25 8.914062 8.355468 13.976562 12.210937 3.296875 2.507813 8 1.871094 10.511719-1.425781 2.507813-3.296875 1.871094-8-1.425781-10.511719-4.511719-3.433593-8.6875-7.078125-12.414063-10.835937-.15625-.15625-.519531-.523438-.257812-1.179688.273437-.691406.839843-.707031 1.054687-.714844 33.59375-1.023437 61.8125-8.03125 83.871094-20.824218 2.523438-1.464844 3.96875-4.265625 3.703125-7.171875-.265625-2.910157-2.195313-5.398438-4.945313-6.378907-39.453124-14.078124-60.851562-37.183593-63.640624-68.695312 13.488281 8.804688 31.957031 13.933594 42.320312 11.542969 2.574219-.59375 4.644531-2.496094 5.453125-5.011719.808594-2.511719.238281-5.265625-1.503906-7.25-16.027344-18.230469-19.292969-37.929688-10.183594-61.8125 9.113281 16.730469 29.144531 40.148438 73.132813 61.125 2.1875 1.042969 4.746093.964844 6.871093-.214844 2.117188-1.175781 3.539063-3.308594 3.808594-5.71875.757813-6.746094 1.140625-13.792968 1.140625-20.949218 0-39.910157 32.46875-72.382813 72.378906-72.382813 39.914063 0 72.382813 32.472656 72.382813 72.382813 0 4.035156-.117188 8.886718-.464844 14.34375-.007813.105468-.015625.210937-.019531.320312-1.332032 20.671875-5.949219 50.082031-19.9375 78.269531-22.078125 44.5-60.226563 71.226563-113.382813 79.441407-41.675781 6.4375-78.90625 2.585937-110.664062-11.449219-3.785157-1.675781-8.214844.039062-9.890625 3.828125-1.671875 3.789062.039062 8.214844 3.828125 9.890625 23.738281 10.492187 50.148437 15.753906 78.867187 15.753906 12.925782 0 26.320313-1.0625 40.148438-3.199219 116.675781-18.03125 140.996094-114.558594 145.546875-165.972656 17.097656-3.769531 33.550781-12.488281 44.898437-23.988281 3.375-3.417969 4.425782-8.53125 2.671875-13.019531-1.773437-4.550782-5.898437-7.519532-10.757812-7.753907zm-35.917969 29.082031c.050781-2.003906.074219-3.863281.074219-5.546874 0-5.402344-.496094-10.691407-1.441407-15.824219 9.109376 3 19.632813 5.601562 30.046876 6.75-7.925782 6.492187-18.121094 11.667969-28.679688 14.621093zm141.003906-109.941406h-65c-4.144531 0-7.5 3.359375-7.5 7.5s3.355469 7.5 7.5 7.5h65c4.140625 0 7.5-3.359375 7.5-7.5s-3.359375-7.5-7.5-7.5zm-32.5-94.785156c-23.285156 0-45.175781 8.953125-61.640625 25.207031-16.464843 16.257813-25.691406 38.035157-25.976562 61.3125-.152344 12.492188 2.269531 24.59375 7.203125 35.957031.265625.613282.332031 1.3125.199218 2.027344l-5.300781 28.144532c-1.074219 5.699218.730469 11.550781 4.835938 15.65625 4.101562 4.101562 9.953125 5.90625 15.652343 4.835937l28.144532-5.304687c.714844-.132813 1.414062-.0625 2.023437.199218 11.027344 4.789063 22.746094 7.210938 34.84375 7.210938.371094 0 .742188-.003906 1.113281-.007813 14.113282-.171875 27.535157-3.5625 39.882813-10.070312 3.664063-1.929688 5.070313-6.46875 3.140625-10.132813-1.933594-3.664062-6.46875-5.070312-10.132812-3.136718-10.230469 5.390624-21.359376 8.199218-33.074219 8.34375-10.382813.132812-20.386719-1.878907-29.800781-5.964844-3.371094-1.464844-7.09375-1.871094-10.773438-1.179688l-28.144531 5.300782c-1.148438.21875-1.917969-.347657-2.269531-.703126-.355469-.355468-.917969-1.125-.703126-2.273437l5.300782-28.144531c.691406-3.675782.285156-7.398438-1.179688-10.773438-4.085937-9.414062-6.09375-19.4375-5.964844-29.800781.238282-19.308594 7.882813-37.359375 21.519532-50.824219 13.640625-13.464844 31.789062-20.882812 51.101562-20.882812 40.042969 0 72.621094 32.578125 72.621094 72.625 0 15.761718-4.898438 30.722656-14.175781 43.265625-2.464844 3.332031-1.761719 8.027343 1.570312 10.488281 3.332031 2.464844 8.027344 1.757812 10.488281-1.570312 11.199219-15.144532 17.117188-33.1875 17.117188-52.183594 0-48.3125-39.304688-87.621094-87.621094-87.621094zm32.5 61.835938h-65c-4.144531 0-7.5 3.359374-7.5 7.5 0 4.144531 3.355469 7.5 7.5 7.5h65c4.140625 0 7.5-3.355469 7.5-7.5 0-4.140626-3.359375-7.5-7.5-7.5zm0 0"/></svg>