<svg height="512pt" viewBox="0 -26 512.001 512" width="512pt" xmlns="http://www.w3.org/2000/svg"><g fill-rule="evenodd"><path d="m256 450c53.324219 0 102.21875-18.972656 140.300781-50.535156 20.035157-16.601563 37.074219-36.691406 50.195313-59.335938-102.503906 42.125-240.492188 63.871094-340.351563 50.941406 39.28125 36.5625 91.957031 58.929688 149.855469 58.929688zm0 0" fill="#ffc059"/><path d="m106.144531 391.070312c99.855469 12.929688 237.84375-8.816406 340.351563-50.941406 9.335937-16.117187 16.683594-33.523437 21.714844-51.894531-73.648438 22.902344-145.710938 35.21875-208.230469 41.558594-36.429688 3.695312-69.613281 5.363281-97.984375 5.910156-61.640625 1.195313-100.539063-2.886719-100.539063-2.886719 11.578125 21.867188 26.734375 41.542969 44.6875 58.253906zm0 0" fill="#ffd89e"/><path d="m61.457031 332.820312s38.902344 4.078126 100.539063 2.882813c-72.003906-34.292969-100.996094-91.703125-122.207032-146.554687-2.488281 13.238281-3.789062 26.894531-3.789062 40.851562 0 37.140625 9.207031 72.132812 25.457031 102.820312zm0 0" fill="#ffc059"/><path d="m39.789062 189.148438c21.210938 54.851562 50.203126 112.261718 122.207032 146.554687 28.371094-.546875 61.558594-2.214844 97.984375-5.910156-37.574219-18.855469-68.988281-42.15625-95.210938-67.550781-47.769531-46.246094-78.316406-99.425782-97.535156-145.300782-13.132813 21.886719-22.570313 46.242188-27.445313 72.207032zm0 0" fill="#ffd89e"/><path d="m67.234375 116.941406c19.21875 45.875 49.765625 99.054688 97.53125 145.300782 33.96875 1.453124 69.984375.148437 106.410156-3.5-63.671875-45.742188-126.453125-117.578126-150.5625-202.160157-21.277343 16.636719-39.417969 37.101563-53.378906 60.359375zm0 0" fill="#ffc059"/><path d="m271.175781 258.742188c-36.425781 3.644531-72.441406 4.953124-106.410156 3.5 26.222656 25.394531 57.636719 48.695312 95.214844 67.550781 62.519531-6.339844 134.582031-18.65625 208.230469-41.554688 5.078124-18.550781 7.789062-38.078125 7.789062-58.238281 0-5.292969-.1875-10.546875-.554688-15.746094-31.265624 10.941406-65.195312 20.40625-100.234374 28-34.097657 7.390625-69.253907 13.007813-104.035157 16.488282zm0 0" fill="#ffc059"/><path d="m120.613281 56.582031c24.109375 84.582031 86.890625 156.417969 150.5625 202.160157 34.78125-3.480469 69.9375-9.097657 104.035157-16.484376-50.671876-27.886718-88.277344-59.746093-116.71875-92.011718-39.640626-44.964844-61.484376-90.722656-76.117188-127.621094-22.5 7.988281-43.3125 19.53125-61.761719 33.957031zm0 0" fill="#ffd89e"/><path d="m258.488281 150.246094c28.445313 32.265625 66.046875 64.125 116.722657 92.007812 35.042968-7.59375 68.96875-17.058594 100.234374-28-1.617187-22.84375-6.71875-44.722656-14.777343-65.109375-14.738281 5.992188-33.3125 10.011719-53.835938 12.226563-19.042969 2.054687-39.765625 2.550781-60.648437 1.625-30.445313-1.351563-61.238282-5.734375-87.695313-12.75zm0 0" fill="#ffc059"/><path d="m258.488281 150.246094c26.457031 7.015625 57.25 11.398437 87.695313 12.75-59.820313-56.003906-66.175782-116.996094-64.882813-151.554688-8.300781-.953125-16.746093-1.441406-25.300781-1.441406-25.824219 0-50.605469 4.449219-73.628906 12.625 14.636718 36.898438 36.480468 82.65625 76.117187 127.621094zm0 0" fill="#ffc059"/><path d="m281.300781 11.441406c-1.292969 34.558594 5.0625 95.550782 64.882813 151.554688 20.882812.925781 41.605468.429687 60.648437-1.625-28.179687-34.632813-34.824219-77.371094-37.027343-119.6875-26.382813-15.976563-56.394532-26.566406-88.503907-30.242188zm0 0" fill="#ffd89e"/><path d="m369.804688 41.683594c2.203124 42.316406 8.847656 85.054687 37.027343 119.6875 20.523438-2.214844 39.097657-6.234375 53.835938-12.226563-17.785157-44.976562-49.964844-82.691406-90.863281-107.460937zm0 0" fill="#ffc059"/></g><path d="m502 440c-23.613281 0-34.59375-10.605469-47.308594-22.886719-9.59375-9.269531-20.109375-19.421875-36.25-24.441406 13.847656-13.824219 25.933594-29.410156 35.914063-46.375.566406-.722656 1.03125-1.511719 1.378906-2.351563 9.332031-16.292968 16.71875-33.828124 21.863281-52.292968.195313-.542969.351563-1.101563.453125-1.675782 5.171875-19.128906 7.949219-39.234374 7.949219-59.976562 0-5.351562-.199219-10.660156-.5625-15.925781-.003906-.261719-.023438-.523438-.046875-.789063-1.691406-23.402344-6.894531-45.84375-15.089844-66.804687-.105469-.367188-.222656-.734375-.371093-1.097657-.132813-.335937-.289063-.65625-.453126-.96875-18.535156-46.0625-51.558593-84.785156-93.402343-110.503906-.699219-.566406-1.472657-1.035156-2.304688-1.394531-27.15625-16.257813-57.925781-27.066406-90.792969-30.925781-.359374-.058594-.722656-.101563-1.09375-.125-8.5-.957032-17.132812-1.464844-25.882812-1.464844-26.617188 0-52.1875 4.5625-75.992188 12.917969-.441406.109375-.882812.238281-1.320312.410156-.191406.074219-.367188.164063-.550781.25-22.667969 8.179687-43.691407 19.828125-62.429688 34.296875-.875.492188-1.65625 1.105469-2.328125 1.816406-21.375 16.941406-39.683594 37.59375-53.933594 60.976563-.585937.730469-1.0625 1.539062-1.421874 2.394531-13.261719 22.367188-22.839844 47.164062-27.898438 73.546875-.121094.457031-.214844.921875-.265625 1.394531-2.527344 13.621094-3.859375 27.65625-3.859375 41.996094 0 38.332031 9.441406 74.496094 26.09375 106.3125.304688.808594.707031 1.566406 1.195312 2.265625 3.074219 5.710937 6.386719 11.28125 9.914063 16.691406-10.554687 3.664063-17.746094 10.339844-23.90625 16.058594-8.449219 7.847656-15.121094 14.046875-29.296875 14.046875-5.523438 0-10 4.476562-10 10s4.476562 10 10 10c22.03125 0 33.609375-10.753906 42.910156-19.394531 7.367188-6.839844 12.945313-12.023438 22.898438-13.210938 6.898437 8.6875 14.414062 16.871094 22.476562 24.476563.628906.804687 1.386719 1.503906 2.238282 2.085937 40.96875 37.648438 95.582031 60.667969 155.476562 60.667969 54.246094 0 104.160156-18.890625 143.53125-50.421875 19.566406.972656 29.667969 10.71875 41.265625 21.917969 13.832031 13.359375 29.507813 28.503906 61.203125 28.503906 5.523438 0 10-4.476562 10-10s-4.476562-10-10-10zm-240.179688-120.492188c-26.566406-13.597656-49.886718-29.480468-70.335937-46.6875.429687.003907.851563.007813 1.28125.007813 87.464844 0 186.703125-16.203125 273.210937-44.804687.003907.660156.023438 1.316406.023438 1.980468 0 17.335938-2.125 34.1875-6.105469 50.3125-70.882812 21.558594-140.007812 33.125-198.074219 39.191406zm-97.625 6.148438c-67.976562-33.230469-94.734374-87.992188-114.023437-137.390625 3.445313-17.007813 8.953125-33.277344 16.246094-48.535156 19.082031 40.617187 47.890625 87.273437 90.75 129 .398437.464843.835937.890625 1.3125 1.277343 19.636719 18.941407 42.191406 36.839844 68.074219 52.65625-14.492188 1.078126-28.023438 1.824219-40.375 2.320313-7.597657.300781-14.933594.519531-21.984376.671875zm127.019532-302.6875c24.695312 4.1875 47.9375 12.6875 68.917968 24.71875 2.101563 34.21875 7.707032 72.101562 28.34375 105.152344-12.238281.703125-25.042968.828125-38.050781.371094-37.828125-36.535157-58.148437-81.296876-59.210937-130.242188zm74.285156 150.476562h.648438c14.449218 0 28.277343-.71875 41.171874-2.09375.417969-.019531.832032-.0625 1.246094-.132812 17.347656-1.921875 32.96875-5.054688 46.105469-9.28125 4.976563 14.488281 8.410156 29.6875 10.101563 45.402344-28.152344 9.527344-57.746094 17.710937-87.886719 24.394531-33.246094-18.613281-62.808594-40.292969-88.429688-64.808594 24.589844 4.210938 51.039063 6.480469 77.042969 6.519531zm81.761719-30.132812c-10.496094 3.28125-22.6875 5.769531-35.992188 7.460938-19.90625-26.699219-27.019531-57.96875-30.011719-89.226563 28.347657 21.132813 51.203126 49.246094 66.003907 81.765625zm-176.082031-122.757812c.363281 48.265624 17.433593 92.855468 49.878906 130.652343-19.585938-1.980469-39-5.261719-57-9.847656-7.65625-8.800781-14.871094-17.902344-21.617188-27.308594-3.222656-4.488281-9.46875-5.515625-13.957031-2.296875s-5.515625 9.46875-2.292969 13.957032c7.542969 10.511718 15.628906 20.660156 24.234375 30.445312.347657.472656.734375.914062 1.160157 1.324219 27.027343 30.457031 59.179687 57.308593 96.082031 80.238281-24.53125 4.609375-49.222657 8.203125-73.613281 10.734375-68.785157-50.28125-120.070313-118.289063-141.839844-187.976563 13.703125-10.03125 28.664062-18.445312 44.597656-24.957031 2.777344 6.703125 5.558594 13.074219 8.414062 19.269531 1.683594 3.660157 5.304688 5.816407 9.085938 5.816407 1.398438 0 2.824219-.296875 4.179688-.921875 5.015624-2.3125 7.207031-8.25 4.894531-13.265625-2.605469-5.65625-5.148438-11.46875-7.695313-17.578125 19.109375-5.738282 39.351563-8.835938 60.308594-8.835938 5.105469-.003906 10.164062.191406 15.179688.550782zm-155.589844 53.433593c12.230468 35.90625 31.550781 70.957031 57.578125 104.382813 20.507812 26.339844 44.90625 51.097656 71.4375 72.625-25.953125 1.78125-51.320313 2.273437-75.519531 1.394531-44.464844-43.945313-72.835938-93.445313-90.574219-134.503906 10.320312-16.28125 22.816406-31.050781 37.078125-43.898438zm-69.578125 155.121094c17.304687 36.011719 40.789062 70.230469 78.941406 96.707031-27.976563-.375-47.964844-1.730468-57.023437-2.460937-14.023438-28.136719-21.929688-59.839844-21.929688-93.355469 0-.296875.011719-.59375.011719-.890625zm92.527343 174.886719c9.617188.519531 19.5.789062 29.628907.789062 44.824219 0 94.238281-5.023437 144.222656-14.855468 5.417969-1.066407 8.949219-6.324219 7.882813-11.742188-1.066407-5.417969-6.324219-8.949219-11.742188-7.882812-71.5 14.0625-141.535156 18.035156-197.738281 11.261718-11.667969-11.1875-22.050781-23.707031-30.902344-37.304687 13.589844.820312 33.824219 1.671875 59.3125 1.671875 14.230469 0 30.097656-.265625 47.351563-.949219 21.390624-.847656 46.234374-2.429687 73.558593-5.195313.535157-.007812 1.0625-.070312 1.585938-.160156 56.082031-5.757812 122.5-16.550781 191.097656-36.34375-3.746094 10.027344-8.238281 19.6875-13.410156 28.925782-16.980469 6.855468-35.183594 13.257812-54.199219 19.035156-5.285156 1.605468-8.265625 7.191406-6.660156 12.476562 1.3125 4.316406 5.277344 7.09375 9.566406 7.09375.960938 0 1.941406-.140625 2.910156-.433594 9.9375-3.019531 19.660156-6.210937 29.125-9.542968-38.511718 48.214844-97.769531 79.160156-164.128906 79.160156-43.476562 0-83.914062-13.285156-117.460938-36.003906zm0 0"/><path d="m203.84375 90.945312c1.804688 3.355469 5.25 5.261719 8.8125 5.261719 1.601562 0 3.222656-.386719 4.730469-1.199219 4.863281-2.617187 6.683593-8.683593 4.066406-13.542968l-.003906-.007813c-2.621094-4.863281-8.679688-6.679687-13.542969-4.0625-4.863281 2.621094-6.683594 8.6875-4.0625 13.550781zm0 0"/><path d="m346.773438 361.832031c-5.308594 1.519531-8.382813 7.054688-6.867188 12.363281 1.257812 4.390626 5.257812 7.253907 9.609375 7.253907.910156 0 1.835937-.125 2.753906-.386719h.007813c5.308594-1.519531 8.382812-7.050781 6.863281-12.363281-1.515625-5.308594-7.054687-8.382813-12.367187-6.867188zm0 0"/></svg>