<?xml version="1.0" ?><svg style="enable-background:new 0 0 48 48;" version="1.1" viewBox="0 0 48 48" xml:space="preserve" xmlns="http://www.w3.org/2000/svg" xmlns:xlink="http://www.w3.org/1999/xlink"><g id="Icons"><g><g><path d="M32.46937,17.67496H15.53063c-0.48583,0-0.87968-0.39384-0.87968-0.87968v-0.39175     c0-0.48583,0.39384-0.87968,0.87968-0.87968h16.93874c0.48583,0,0.87968,0.39384,0.87968,0.87968v0.39175     C33.34905,17.28111,32.9552,17.67496,32.46937,17.67496z" style="fill:#5F83CF;"/><path d="M32.46937,25.07555H15.53063c-0.48583,0-0.87968-0.39384-0.87968-0.87968v-0.39175     c0-0.48583,0.39384-0.87968,0.87968-0.87968h16.93874c0.48583,0,0.87968,0.39384,0.87968,0.87968v0.39175     C33.34905,24.68171,32.9552,25.07555,32.46937,25.07555z" style="fill:#5F83CF;"/><path d="M32.46937,32.47615H15.53063c-0.48583,0-0.87968-0.39384-0.87968-0.87968v-0.39175     c0-0.48583,0.39384-0.87968,0.87968-0.87968h16.93874c0.48583,0,0.87968,0.39384,0.87968,0.87968v0.39175     C33.34905,32.08231,32.9552,32.47615,32.46937,32.47615z" style="fill:#5F83CF;"/></g><g><path d="     M32.46937,17.67496H15.53063c-0.48583,0-0.87968-0.39384-0.87968-0.87968v-0.39175c0-0.48583,0.39384-0.87968,0.87968-0.87968     h16.93874c0.48583,0,0.87968,0.39384,0.87968,0.87968v0.39175C33.34905,17.28111,32.9552,17.67496,32.46937,17.67496z" style="fill:none;stroke:#303030;stroke-width:0.7;stroke-linecap:round;stroke-linejoin:round;stroke-miterlimit:10;"/><path d="     M32.46937,25.07555H15.53063c-0.48583,0-0.87968-0.39384-0.87968-0.87968v-0.39175c0-0.48583,0.39384-0.87968,0.87968-0.87968     h16.93874c0.48583,0,0.87968,0.39384,0.87968,0.87968v0.39175C33.34905,24.68171,32.9552,25.07555,32.46937,25.07555z" style="fill:none;stroke:#303030;stroke-width:0.7;stroke-linecap:round;stroke-linejoin:round;stroke-miterlimit:10;"/><path d="     M32.46937,32.47615H15.53063c-0.48583,0-0.87968-0.39384-0.87968-0.87968v-0.39175c0-0.48583,0.39384-0.87968,0.87968-0.87968     h16.93874c0.48583,0,0.87968,0.39384,0.87968,0.87968v0.39175C33.34905,32.08231,32.9552,32.47615,32.46937,32.47615z" style="fill:none;stroke:#303030;stroke-width:0.7;stroke-linecap:round;stroke-linejoin:round;stroke-miterlimit:10;"/></g></g></g></svg>