<?xml version="1.0" ?><svg style="enable-background:new 0 0 48 48;" version="1.1" viewBox="0 0 48 48" xml:space="preserve" xmlns="http://www.w3.org/2000/svg" xmlns:xlink="http://www.w3.org/1999/xlink"><g id="Icons"><g><rect height="9.73207" style="fill:#F4F4F4;" width="1.27916" x="13.99922" y="21.66776"/><path d="M31.06873,29.81382v-3.15v-2.91c0-0.28-0.26-0.5-0.58-0.5h-12.97c-0.33,0-0.59,0.22-0.59,0.5v2.91    v3.15C16.92873,26.90891,31.06873,26.90891,31.06873,29.81382" style="fill:#5F83CF;"/><path d="M34.28553,21.66776H13.71447c-0.67535,0-0.96069-0.8607-0.41909-1.26414l4.91938-3.66451    c0.1211-0.09021,0.26808-0.13894,0.41909-0.13894h10.72768c0.1509,0,0.29778,0.04866,0.41884,0.13875l4.92401,3.66451    C35.24628,20.80672,34.96104,21.66776,34.28553,21.66776z" style="fill:#5F83CF;"/><path d="    M31.06873,29.81382v-3.15v-2.91c0-0.28-0.26-0.5-0.58-0.5h-12.97c-0.33,0-0.59,0.22-0.59,0.5v2.91v3.15    C16.92873,26.90891,31.06873,26.90891,31.06873,29.81382" style="fill:none;stroke:#303030;stroke-width:0.7;stroke-linecap:round;stroke-linejoin:round;stroke-miterlimit:10;"/><path d="    M34.28553,21.66776H13.71447c-0.67535,0-0.96069-0.8607-0.41909-1.26414l4.91938-3.66451    c0.1211-0.09021,0.26808-0.13894,0.41909-0.13894h10.72768c0.1509,0,0.29778,0.04866,0.41884,0.13875l4.92401,3.66451    C35.24628,20.80672,34.96104,21.66776,34.28553,21.66776z" style="fill:none;stroke:#303030;stroke-width:0.7;stroke-linecap:round;stroke-linejoin:round;stroke-miterlimit:10;"/><rect height="9.73207" style="fill:none;stroke:#303030;stroke-width:0.7;stroke-linecap:round;stroke-linejoin:round;stroke-miterlimit:10;" width="1.27916" x="13.99922" y="21.66776"/></g></g></svg>