<?xml version="1.0" ?><svg style="enable-background:new 0 0 48 48;" version="1.1" viewBox="0 0 48 48" xml:space="preserve" xmlns="http://www.w3.org/2000/svg" xmlns:xlink="http://www.w3.org/1999/xlink"><g id="Icons"><g><path d="M30.26,14.13h5.98c1.51,0,2.74,1.23,2.74,2.74v17.09c0,1.51-1.23,2.73-2.74,2.73H11.75    c-1.51,0-2.73-1.22-2.73-2.73V16.87c0-1.51,1.22-2.74,2.73-2.74h6.26923l0.76505-1.85988    C19.02325,11.6892,19.58926,11.31,20.21741,11.31h7.85023c0.62987,0,1.19707,0.38125,1.43491,0.96448L30.25923,14.13" style="fill:#5F83CF;"/><circle cx="24.00077" cy="25.41348" r="6.58477" style="fill:#F4F4F4;"/><circle cx="24.00077" cy="25.41348" r="5.12817" style="fill:#5F83CF;"/><circle cx="33.2919" cy="18.38478" r="0.93492" style="fill:#F4F4F4;"/><path d="    M30.26,14.13h5.98c1.51,0,2.74,1.23,2.74,2.74v17.09c0,1.51-1.23,2.73-2.74,2.73H11.75c-1.51,0-2.73-1.22-2.73-2.73V16.87    c0-1.51,1.22-2.74,2.73-2.74h6.26923l0.76505-1.85988C19.02325,11.6892,19.58926,11.31,20.21741,11.31h7.85023    c0.62987,0,1.19707,0.38125,1.43491,0.96448L30.25923,14.13" style="fill:none;stroke:#303030;stroke-width:0.7;stroke-linecap:round;stroke-linejoin:round;stroke-miterlimit:10;"/><circle cx="24.00077" cy="25.41348" r="6.58477" style="fill:none;stroke:#303030;stroke-width:0.7;stroke-linecap:round;stroke-linejoin:round;stroke-miterlimit:10;"/><circle cx="24.00077" cy="25.41348" r="5.12817" style="fill:none;stroke:#303030;stroke-width:0.7;stroke-linecap:round;stroke-linejoin:round;stroke-miterlimit:10;"/><circle cx="33.2919" cy="18.38478" r="0.93492" style="fill:none;stroke:#303030;stroke-width:0.7;stroke-linecap:round;stroke-linejoin:round;stroke-miterlimit:10;"/></g></g></svg>