<?xml version="1.0" ?><svg style="enable-background:new 0 0 48 48;" version="1.1" viewBox="0 0 48 48" xml:space="preserve" xmlns="http://www.w3.org/2000/svg" xmlns:xlink="http://www.w3.org/1999/xlink"><g id="Icons"><g><path d="M35.24081,27.28716l-0.00455,6.35106c0,1.51155-1.14731,2.74078-2.54954,2.74078H15.31331    c-1.41135,0-2.55866-1.22923-2.55866-2.74078l0.00455-6.34194c0.44616,0.06369,0.91055,0.08192,1.36583,0.05463l-0.00455,6.28731    c0,0.75578,0.53725,1.37495,1.19282,1.37495h17.37341c0.65557,0,1.18371-0.61917,1.18371-1.37495l0.00454-6.29643    C34.33026,27.37819,34.79465,27.35996,35.24081,27.28716z" style="fill:#F4F4F4;"/><path d="M17.13441,24.09561c0,1.26567-1.44778,1.94859-3.01394,2.04875    c-0.45528,0.03642-0.91966,0.01821-1.36583-0.05463c-1.34762-0.20943-2.47671-0.87413-2.47671-1.99412l3.14709-11.43638    c0.16876-0.61327,0.72645-1.03823,1.36252-1.03823h18.42491c0.63607,0,1.19376,0.42495,1.36252,1.03823l3.14709,11.43638    c0,1.11998-1.1382,1.78469-2.48582,1.99412c-0.44617,0.06374-0.91056,0.08195-1.36583,0.05463    c-1.56615-0.10016-3.00483-0.78308-3.00483-2.04875l-0.00749-0.00074c0,2.75728-6.86018,2.75728-6.86018,0    c0,2.75728-6.86018,2.75728-6.86018,0L17.13441,24.09561z" style="fill:#5F83CF;"/><path d="    M35.24081,27.28716l-0.00455,6.35106c0,1.51155-1.14731,2.74078-2.54954,2.74078H15.31331    c-1.41135,0-2.55866-1.22923-2.55866-2.74078l0.00455-6.34194c0.44616,0.06369,0.91055,0.08192,1.36583,0.05463l-0.00455,6.28731    c0,0.75578,0.53725,1.37495,1.19282,1.37495h17.37341c0.65557,0,1.18371-0.61917,1.18371-1.37495l0.00454-6.29643    C34.33026,27.37819,34.79465,27.35996,35.24081,27.28716z" style="fill:none;stroke:#303030;stroke-width:0.7;stroke-linecap:round;stroke-linejoin:round;stroke-miterlimit:10;"/><path d="    M17.13441,24.09561c0,1.26567-1.44778,1.94859-3.01394,2.04875c-0.45528,0.03642-0.91966,0.01821-1.36583-0.05463    c-1.34762-0.20943-2.47671-0.87413-2.47671-1.99412l3.14709-11.43638c0.16876-0.61327,0.72645-1.03823,1.36252-1.03823h18.42491    c0.63607,0,1.19376,0.42495,1.36252,1.03823l3.14709,11.43638c0,1.11998-1.1382,1.78469-2.48582,1.99412    c-0.44617,0.06374-0.91056,0.08195-1.36583,0.05463c-1.56615-0.10016-3.00483-0.78308-3.00483-2.04875l-0.00749-0.00074    c0,2.75728-6.86018,2.75728-6.86018,0c0,2.75728-6.86018,2.75728-6.86018,0L17.13441,24.09561z" style="fill:none;stroke:#303030;stroke-width:0.7;stroke-linecap:round;stroke-linejoin:round;stroke-miterlimit:10;"/><path d="    M12.75919,27.29625c0.44617,0.06374,0.91056,0.08195,1.36583,0.05463" style="fill:none;stroke:#303030;stroke-width:0.7;stroke-linecap:round;stroke-linejoin:round;stroke-miterlimit:10;"/><path d="    M33.87497,27.34178c0.45528,0.03642,0.91966,0.01821,1.36583-0.05463" style="fill:none;stroke:#303030;stroke-width:0.7;stroke-linecap:round;stroke-linejoin:round;stroke-miterlimit:10;"/><line style="fill:none;stroke:#303030;stroke-width:0.7;stroke-linecap:round;stroke-linejoin:round;stroke-miterlimit:10;" x1="16.37364" x2="24.56307" y1="13.86694" y2="13.86694"/><line style="fill:none;stroke:#303030;stroke-width:0.7;stroke-linecap:round;stroke-linejoin:round;stroke-miterlimit:10;" x1="27.77735" x2="30.0816" y1="13.86694" y2="13.86694"/></g></g></svg>