<?xml version="1.0" ?><svg style="enable-background:new 0 0 48 48;" version="1.1" viewBox="0 0 48 48" xml:space="preserve" xmlns="http://www.w3.org/2000/svg" xmlns:xlink="http://www.w3.org/1999/xlink"><g id="Icons"><g><path d="M33.035,13.535h0.01h1.4c1.24,0,2.25,1.01,2.25,2.26v16.41c0,1.25-1.01,2.26-2.25,2.26h-20.88    c-1.25,0-2.26-1.01-2.26-2.26v-16.41c0-1.25,1.01-2.26,2.26-2.26h1.39h1.69h14.71H33.035z" style="fill:#5F83CF;"/><path d="M34.69048,32.69749H13.30952c-0.24462,0-0.44293-0.19831-0.44293-0.44293v-9.31362    c0-0.24462,0.19831-0.44293,0.44293-0.44293h21.38096c0.24462,0,0.44293,0.19831,0.44293,0.44293v9.31362    C35.13341,32.49918,34.9351,32.69749,34.69048,32.69749z" style="fill:#FFFFFF;"/><path d="M17.25898,19.86435h-3.75111c-0.278,0-0.50337-0.22536-0.50337-0.50337v-3.75111    c0-0.278,0.22537-0.50337,0.50337-0.50337h3.75111c0.278,0,0.50336,0.22536,0.50336,0.50337v3.75111    C17.76235,19.63899,17.53698,19.86435,17.25898,19.86435z" style="fill:#FFFFFF;"/><path d="M34.60622,16.8751H21.84254c-0.21143,0-0.38282-0.1714-0.38282-0.38282v-0.75832    c0-0.21143,0.1714-0.38282,0.38282-0.38282h12.76368c0.21143,0,0.38282,0.1714,0.38282,0.38282v0.75832    C34.98905,16.70371,34.81765,16.8751,34.60622,16.8751z" style="fill:#FFFFFF;"/><path d="M27.30298,19.86435h-5.39881c-0.24547,0-0.44446-0.19899-0.44446-0.44445v-0.63506    c0-0.24547,0.19899-0.44446,0.44446-0.44446h5.39881c0.24546,0,0.44445,0.19899,0.44445,0.44446v0.63506    C27.74743,19.66536,27.54844,19.86435,27.30298,19.86435z" style="fill:#FFFFFF;"/><path d="    M33.035,13.535h0.01h1.4c1.24,0,2.25,1.01,2.25,2.26v16.41c0,1.25-1.01,2.26-2.25,2.26h-20.88c-1.25,0-2.26-1.01-2.26-2.26v-16.41    c0-1.25,1.01-2.26,2.26-2.26h1.39h1.69h14.71H33.035z" style="fill:none;stroke:#303030;stroke-width:0.7;stroke-linecap:round;stroke-linejoin:round;stroke-miterlimit:10;"/><path d="    M34.69048,32.69749H13.30952c-0.24462,0-0.44293-0.19831-0.44293-0.44293v-9.31362c0-0.24462,0.19831-0.44293,0.44293-0.44293    h21.38096c0.24462,0,0.44293,0.19831,0.44293,0.44293v9.31362C35.13341,32.49918,34.9351,32.69749,34.69048,32.69749z" style="fill:none;stroke:#303030;stroke-width:0.7;stroke-linecap:round;stroke-linejoin:round;stroke-miterlimit:10;"/><path d="    M17.25898,19.86435h-3.75111c-0.278,0-0.50337-0.22536-0.50337-0.50337v-3.75111c0-0.278,0.22537-0.50337,0.50337-0.50337h3.75111    c0.278,0,0.50336,0.22536,0.50336,0.50337v3.75111C17.76235,19.63899,17.53698,19.86435,17.25898,19.86435z" style="fill:none;stroke:#303030;stroke-width:0.7;stroke-linecap:round;stroke-linejoin:round;stroke-miterlimit:10;"/><path d="    M34.60622,16.8751H21.84254c-0.21143,0-0.38282-0.1714-0.38282-0.38282v-0.75832c0-0.21143,0.1714-0.38282,0.38282-0.38282    h12.76368c0.21143,0,0.38282,0.1714,0.38282,0.38282v0.75832C34.98905,16.70371,34.81765,16.8751,34.60622,16.8751z" style="fill:none;stroke:#303030;stroke-width:0.7;stroke-linecap:round;stroke-linejoin:round;stroke-miterlimit:10;"/><path d="    M27.30298,19.86435h-5.39881c-0.24547,0-0.44446-0.19899-0.44446-0.44445v-0.63506c0-0.24547,0.19899-0.44446,0.44446-0.44446    h5.39881c0.24546,0,0.44445,0.19899,0.44445,0.44446v0.63506C27.74743,19.66536,27.54844,19.86435,27.30298,19.86435z" style="fill:none;stroke:#303030;stroke-width:0.7;stroke-linecap:round;stroke-linejoin:round;stroke-miterlimit:10;"/></g></g></svg>