<?xml version="1.0" ?><svg style="enable-background:new 0 0 48 48;" version="1.1" viewBox="0 0 48 48" xml:space="preserve" xmlns="http://www.w3.org/2000/svg" xmlns:xlink="http://www.w3.org/1999/xlink"><g id="Icons"><g><path d="M34.76749,15.80501v17.36c0,1.25-0.92,2.26-2.05,2.26h-19.08c-1.14,0-2.06-1.01-2.06-2.26v-16.41    c0-1.25,0.92-2.26,2.06-2.26h19.44" style="fill:#5F83CF;"/><path d="    M34.76749,15.80501v17.36c0,1.25-0.92,2.26-2.05,2.26h-19.08c-1.14,0-2.06-1.01-2.06-2.26v-16.41c0-1.25,0.92-2.26,2.06-2.26    h19.44" style="fill:none;stroke:#303030;stroke-width:0.7;stroke-linecap:round;stroke-linejoin:round;stroke-miterlimit:10;"/><path d="M34.57748,15.80501l1.56-1.56c0.38-0.38,0.38-1.01,0-1.39c-0.19-0.19-0.44-0.28-0.7-0.28    c-0.25,0-0.5,0.09-0.69,0.28l-1.67,1.68" style="fill:#FFFFFF;"/><path d="M34.7475,12.85502c0.19-0.19,0.44-0.28003,0.69-0.28003c0.26001,0,0.51001,0.09003,0.70001,0.28003    c0.38,0.38,0.38,1.01001,0,1.39001l-1.56,1.56l-0.10004,0.09998c0,0.01001-0.00995,0.02002-0.01996,0.03003l-1.21002,1.19995    L21.03747,29.34501L18.95752,29.955l0.69-2l12.20996-12.20001l1.21002-1.20996" style="fill:#FFFFFF;"/><path d="M34.7475,12.85502c0.19-0.19,0.44-0.28003,0.69-0.28003c0.26001,0,0.51001,0.09003,0.70001,0.28003    c0.38,0.38,0.38,1.01001,0,1.39001l-1.56,1.56l-0.10004,0.09998c0,0.01001-0.00995,0.02002-0.01996,0.03003l-1.21002,1.19995    L21.03747,29.34501L18.95752,29.955l0.69-2l12.20996-12.20001" style="fill:#F4F4F4;"/><path d="    M34.57748,15.80501l1.56-1.56c0.38-0.38,0.38-1.01,0-1.39c-0.19-0.19-0.44-0.28-0.7-0.28c-0.25,0-0.5,0.09-0.69,0.28l-1.67,1.68" style="fill:none;stroke:#303030;stroke-width:0.7;stroke-linecap:round;stroke-linejoin:round;stroke-miterlimit:10;"/><path d="    M34.7475,12.85502c0.19-0.19,0.44-0.28003,0.69-0.28003c0.26001,0,0.51001,0.09003,0.70001,0.28003    c0.38,0.38,0.38,1.01001,0,1.39001l-1.56,1.56l-0.10004,0.09998c0,0.01001-0.00995,0.02002-0.01996,0.03003l-1.21002,1.19995    L21.03747,29.34501L18.95752,29.955l0.69-2l12.20996-12.20001l1.21002-1.20996" style="fill:none;stroke:#303030;stroke-width:0.7;stroke-linecap:round;stroke-linejoin:round;stroke-miterlimit:10;"/><path d="    M34.7475,12.85502c0.19-0.19,0.44-0.28003,0.69-0.28003c0.26001,0,0.51001,0.09003,0.70001,0.28003    c0.38,0.38,0.38,1.01001,0,1.39001l-1.56,1.56l-0.10004,0.09998c0,0.01001-0.00995,0.02002-0.01996,0.03003l-1.21002,1.19995    L21.03747,29.34501L18.95752,29.955l0.69-2l12.20996-12.20001" style="fill:none;stroke:#303030;stroke-width:0.7;stroke-linecap:round;stroke-linejoin:round;stroke-miterlimit:10;"/><path d="    M34.47749,15.90501c0.08-0.24-0.59-0.98-1.05-1.27" style="fill:none;stroke:#303030;stroke-width:0.7;stroke-linecap:round;stroke-linejoin:round;stroke-miterlimit:10;"/><path d="    M31.85789,15.75092c0.28763-0.19113,1.61842,1.15632,1.38724,1.38724" style="fill:none;stroke:#303030;stroke-width:0.7;stroke-linecap:round;stroke-linejoin:round;stroke-miterlimit:10;"/></g></g></svg>