<?xml version="1.0" ?><svg style="enable-background:new 0 0 48 48;" version="1.1" viewBox="0 0 48 48" xml:space="preserve" xmlns="http://www.w3.org/2000/svg" xmlns:xlink="http://www.w3.org/1999/xlink"><g id="Icons"><g><path d="M28.91033,15.35657h-1.20001c0-1.81-1.91998-2.62994-3.71002-2.62994    c-1.78998,0-3.71997,0.81995-3.71997,2.62994h-1.20001c0-2.62994,2.54999-3.82996,4.91998-3.82996    C26.36028,11.52662,28.91033,12.72663,28.91033,15.35657z" style="fill:#FFFFFF;"/><path d="M36.695,25.18v9.03c0,1.25-1.01,2.26-2.25,2.26h-20.88c-1.25,0-2.26-1.01-2.26-2.26v-9.03" style="fill:#5F83CF;"/><path d="M19.16126,15.65h-6.26c-0.86,0-1.6,0.77-1.8,1.86l-0.9,4.86c-0.29,1.53,0.6,2.99,1.8,2.99h23.99    c1.19,0,2.07-1.43,1.82-2.94l-0.82-4.86c-0.19-1.12-0.94-1.91-1.82-1.91h-6.34h-1.04h-7.59H19.16126z" style="fill:#5F83CF;"/><path d="M18.555,25.36c0.13,0.05621,0.21,0.15457,0.21,0.26698v2.23424c0,0.17565-0.2,0.31617-0.45,0.31617    h-0.39c-0.25,0-0.45-0.14052-0.45-0.31617v-2.23424c0-0.11242,0.08-0.21078,0.21-0.26698" style="fill:#FFFFFF;"/><path d="M30.315,25.36c0.13,0.05621,0.21,0.15457,0.21,0.26698v2.23424c0,0.17565-0.2,0.31617-0.45,0.31617    h-0.38c-0.25,0-0.45-0.14052-0.45-0.31617v-2.23424c0-0.11242,0.08-0.21078,0.21-0.26698" style="fill:#FFFFFF;"/><path d="    M36.695,25.18v9.03c0,1.25-1.01,2.26-2.25,2.26h-20.88c-1.25,0-2.26-1.01-2.26-2.26v-9.03" style="fill:none;stroke:#303030;stroke-width:0.7;stroke-linecap:round;stroke-linejoin:round;stroke-miterlimit:10;"/><path d="    M19.16126,15.65h-6.26c-0.86,0-1.6,0.77-1.8,1.86l-0.9,4.86c-0.29,1.53,0.6,2.99,1.8,2.99h23.99c1.19,0,2.07-1.43,1.82-2.94    l-0.82-4.86c-0.19-1.12-0.94-1.91-1.82-1.91h-6.34h-1.04h-7.59H19.16126z" style="fill:none;stroke:#303030;stroke-width:0.7;stroke-linecap:round;stroke-linejoin:round;stroke-miterlimit:10;"/><path d="    M12.00126,25.36c-1.2,0-2.09-1.46-1.8-2.99" style="fill:none;stroke:#303030;stroke-width:0.7;stroke-linecap:round;stroke-linejoin:round;stroke-miterlimit:10;"/><line style="fill:none;stroke:#303030;stroke-width:0.7;stroke-linecap:round;stroke-linejoin:round;stroke-miterlimit:10;" x1="35.99126" x2="12.00126" y1="25.36" y2="25.36"/><path d="    M37.81126,22.42c0.25,1.51-0.63,2.94-1.82,2.94" style="fill:none;stroke:#303030;stroke-width:0.7;stroke-linecap:round;stroke-linejoin:round;stroke-miterlimit:10;"/><path d="    M20.285,15.36c0-1.81,1.93-2.63,3.72-2.63c1.79,0,3.71,0.82,3.71,2.63" style="fill:none;stroke:#303030;stroke-width:0.7;stroke-linecap:round;stroke-linejoin:round;stroke-miterlimit:10;"/><path d="    M28.915,15.36c0-2.63-2.55-3.83-4.91-3.83c-2.37,0-4.92,1.2-4.92,3.83" style="fill:none;stroke:#303030;stroke-width:0.7;stroke-linecap:round;stroke-linejoin:round;stroke-miterlimit:10;"/><path d="    M18.555,25.36c0.13,0.05621,0.21,0.15457,0.21,0.26698v2.23424c0,0.17565-0.2,0.31617-0.45,0.31617h-0.39    c-0.25,0-0.45-0.14052-0.45-0.31617v-2.23424c0-0.11242,0.08-0.21078,0.21-0.26698" style="fill:none;stroke:#303030;stroke-width:0.7;stroke-linecap:round;stroke-linejoin:round;stroke-miterlimit:10;"/><path d="    M30.315,25.36c0.13,0.05621,0.21,0.15457,0.21,0.26698v2.23424c0,0.17565-0.2,0.31617-0.45,0.31617h-0.38    c-0.25,0-0.45-0.14052-0.45-0.31617v-2.23424c0-0.11242,0.08-0.21078,0.21-0.26698" style="fill:none;stroke:#303030;stroke-width:0.7;stroke-linecap:round;stroke-linejoin:round;stroke-miterlimit:10;"/><line style="fill:none;stroke:#303030;stroke-width:0.7;stroke-linecap:round;stroke-linejoin:round;stroke-miterlimit:10;" x1="17.30031" x2="26.25326" y1="17.99549" y2="17.99549"/><line style="fill:none;stroke:#303030;stroke-width:0.7;stroke-linecap:round;stroke-linejoin:round;stroke-miterlimit:10;" x1="28.55465" x2="30.18246" y1="17.99549" y2="17.99549"/></g></g></svg>