<?xml version="1.0" ?><svg style="enable-background:new 0 0 48 48;" version="1.1" viewBox="0 0 48 48" xml:space="preserve" xmlns="http://www.w3.org/2000/svg" xmlns:xlink="http://www.w3.org/1999/xlink"><g id="Icons"><g><g><path d="M33.035,11.94405h0.01h1.4c1.24,0,2.25,1.01,2.25,2.26v16.41c0,1.25-1.01,2.26-2.25,2.26h-20.88     c-1.25,0-2.26-1.01-2.26-2.26v-16.41c0-1.25,1.01-2.26,2.26-2.26h1.39h1.69h14.71H33.035z" style="fill:#F4F4F4;"/><path d="M13.61739,34.77595c0.23,0.74,0.93,1.28,1.76,1.28h17.26c0.82,0,1.52-0.54,1.75-1.28" style="fill:#F4F4F4;"/><polygon points="24,15.4443 25.59576,20.35554 30.75973,20.35554 26.58199,23.39085 28.17775,28.30208      24,25.26677 19.82225,28.30208 21.41801,23.39085 17.24026,20.35554 22.40424,20.35554    " style="fill:#F4F4F4;"/></g><polygon points="24,15.4443 25.59576,20.35554 30.75973,20.35554 26.58199,23.39085 28.17775,28.30208     24,25.26677 19.82225,28.30208 21.41801,23.39085 17.24026,20.35554 22.40424,20.35554   " style="fill:#FFD872;"/><path d="    M33.035,11.94405h0.01h1.4c1.24,0,2.25,1.01,2.25,2.26v16.41c0,1.25-1.01,2.26-2.25,2.26h-20.88c-1.25,0-2.26-1.01-2.26-2.26    v-16.41c0-1.25,1.01-2.26,2.26-2.26h1.39h1.69h14.71H33.035z" style="fill:none;stroke:#303030;stroke-width:0.7;stroke-linecap:round;stroke-linejoin:round;stroke-miterlimit:10;"/><path d="    M13.61739,34.77595c0.23,0.74,0.93,1.28,1.76,1.28h17.26c0.82,0,1.52-0.54,1.75-1.28" style="fill:none;stroke:#303030;stroke-width:0.7;stroke-linecap:round;stroke-linejoin:round;stroke-miterlimit:10;"/><polygon points="    24,15.4443 25.59576,20.35554 30.75973,20.35554 26.58199,23.39085 28.17775,28.30208 24,25.26677 19.82225,28.30208     21.41801,23.39085 17.24026,20.35554 22.40424,20.35554   " style="fill:none;stroke:#303030;stroke-width:0.7;stroke-linecap:round;stroke-linejoin:round;stroke-miterlimit:10;"/><line style="fill:none;stroke:#303030;stroke-width:0.7;stroke-linecap:round;stroke-linejoin:round;stroke-miterlimit:10;" x1="34.38739" x2="13.61739" y1="34.77595" y2="34.77595"/></g></g></svg>