<?xml version="1.0" ?><svg style="enable-background:new 0 0 48 48;" version="1.1" viewBox="0 0 48 48" xml:space="preserve" xmlns="http://www.w3.org/2000/svg" xmlns:xlink="http://www.w3.org/1999/xlink"><g id="Icons"><g><path d="M36.95987,13.15124l-0.02002,2.14001c0,7.85998-3.27002,15.27997-8.81,19.97998l-4.02067,3.40882    c-0.06886,0.05838-0.16984,0.05838-0.2387,0l-4.02066-3.40882c-5.53998-4.70001-8.81-12.12-8.81-19.97998l-0.00001-1.68753    c0-0.38642,0.42222-0.58507,0.75086-0.38179c1.83846,1.1372,5.85839,0.4789,8.6692-0.94069    c1.54999-0.77002,2.81-1.77997,3.29999-2.84998c0.09998-0.20001,0.37-0.21002,0.46002-0.01001    c0.50995,1.07001,1.81995,2.08997,3.41998,2.85999c3.13,1.53998,7.39996,2.22998,8.96997,0.72003    C36.73984,12.87127,36.96988,12.96124,36.95987,13.15124z" style="fill:#F4F4F4;"/><path d="M23.95421,24.03353v12.35819c0,0,6.91794-4.12646,9.61124-12.35819H23.95421z" style="fill:#5F83CF;"/><path d="M23.95421,12.09101v11.94252h-9.61124c0,0-1.74528-4.5543-1.37527-8.52826    C12.9677,15.50527,18.20421,16.46545,23.95421,12.09101z" style="fill:#5F83CF;"/><path d="    M12.84042,15.48541c0.05371,7.23779,3.10059,14.10937,8.17383,18.41309l2.97559,2.52344l2.97607-2.52344    c5.07617-4.30664,8.12353-11.18408,8.17334-18.42676c-2.58398,0.43506-5.9165-0.40771-8.29346-1.57471    c-1.14502-0.55566-2.0957-1.18262-2.8335-1.85986c-0.71582,0.67432-1.6377,1.29932-2.74707,1.854    C18.92295,15.07378,15.49228,15.94293,12.84042,15.48541z" style="fill:none;stroke:#303030;stroke-width:0.7;stroke-linecap:round;stroke-linejoin:round;stroke-miterlimit:10;"/><path d="    M36.95987,13.15124l-0.02002,2.14001c0,7.85998-3.27002,15.27997-8.81,19.97998l-4.02067,3.40882    c-0.06886,0.05838-0.16984,0.05838-0.2387,0l-4.02066-3.40882c-5.53998-4.70001-8.81-12.12-8.81-19.97998l-0.00001-1.68753    c0-0.38642,0.42222-0.58507,0.75086-0.38179c1.83846,1.1372,5.85839,0.4789,8.6692-0.94069    c1.54999-0.77002,2.81-1.77997,3.29999-2.84998c0.09998-0.20001,0.37-0.21002,0.46002-0.01001    c0.50995,1.07001,1.81995,2.08997,3.41998,2.85999c3.13,1.53998,7.39996,2.22998,8.96997,0.72003    C36.73984,12.87127,36.96988,12.96124,36.95987,13.15124z" style="fill:none;stroke:#303030;stroke-width:0.7;stroke-linecap:round;stroke-linejoin:round;stroke-miterlimit:10;"/><line style="fill:none;stroke:#303030;stroke-width:0.7;stroke-linecap:round;stroke-linejoin:round;stroke-miterlimit:10;" x1="24.0123" x2="23.98984" y1="12.03716" y2="36.42193"/><line style="fill:none;stroke:#303030;stroke-width:0.7;stroke-linecap:round;stroke-linejoin:round;stroke-miterlimit:10;" x1="14.34298" x2="33.56545" y1="24.03353" y2="24.03353"/></g></g></svg>