<?xml version="1.0" ?><svg style="enable-background:new 0 0 48 48;" version="1.1" viewBox="0 0 48 48" xml:space="preserve" xmlns="http://www.w3.org/2000/svg" xmlns:xlink="http://www.w3.org/1999/xlink"><g id="Icons"><path d="M24,13.74982c-6.13,0-11.09998,4.27057-11.09998,9.54016c0,3.64478,2.37,6.80658,5.85999,8.40936   l0.00909,0.00311l-0.23779,2.54767l2.68262-1.7218c0.8902,0.19305,1.828,0.30182,2.78607,0.30182   c6.13,0,11.09998-4.27057,11.09998-9.54016S30.13,13.74982,24,13.74982z" style="fill:#5F83CF;"/><polygon points="31.39567,21.2114 25.26311,26.76388 20.52847,22.53917 16.60433,25.79421    20.68099,19.81612 25.43935,24.05974  " style="fill:#FFFFFF;"/><polyline points="   21.18,32.55015 18.53132,34.25015 18.76,31.80015  " style="fill:none;stroke:#303030;stroke-width:0.7;stroke-linecap:round;stroke-linejoin:round;stroke-miterlimit:10;"/><path d="   M21.18,32.52275c0.9,0.19761,1.85,0.30739,2.82,0.30739c6.13,0,11.1-4.27056,11.1-9.54015s-4.97-9.54015-11.1-9.54015   S12.9,18.02041,12.9,23.29c0,3.6448,2.37,6.80655,5.86,8.40938" style="fill:none;stroke:#303030;stroke-width:0.7;stroke-linecap:round;stroke-linejoin:round;stroke-miterlimit:10;"/><polygon points="   31.39567,21.2114 25.26311,26.76388 20.52847,22.53917 16.60433,25.79421 20.68099,19.81612 25.43935,24.05974  " style="fill:none;stroke:#303030;stroke-width:0.7;stroke-linecap:round;stroke-linejoin:round;stroke-miterlimit:10;"/></g></svg>