<?xml version="1.0" ?><svg style="enable-background:new 0 0 48 48;" version="1.1" viewBox="0 0 48 48" xml:space="preserve" xmlns="http://www.w3.org/2000/svg" xmlns:xlink="http://www.w3.org/1999/xlink"><g id="Icons"><path d="M36.69498,14.20447v16.40997c0,1.25-1.01001,2.26001-2.25,2.26001h-20.88   c-1.25,0-2.25995-1.01001-2.25995-2.26001V14.20447c0-1.25,1.00995-2.26001,2.25995-2.26001h20.88   C35.68497,11.94446,36.69498,12.95447,36.69498,14.20447z" style="fill:#F4F4F4;"/><rect height="5.82402" style="fill:#D1D5DC;" width="1.26231" x="16.80343" y="19.03307"/><path d="M18.06498,32.87447c0-0.02,0-0.04,0-0.06v-6.4l-1.26-0.01v6.41c0,0.02,0,0.04,0,0.06" style="fill:#D1D5DC;"/><path d="M16.80343,17.62277v-1.11431c0-0.34822,0.27858-0.63551,0.6268-0.63551   c0.35693,0,0.63551,0.28728,0.63551,0.63551v1.11431H16.80343z" style="fill:#D1D5DC;"/><polygon points="15.88935,17.62277 15.88935,19.03307 19.58787,19.03307 19.58787,24.85709    15.88935,24.85709 15.88935,26.32833 32.11651,26.32833 28.89546,21.97555 32.11651,17.62277  " style="fill:#FC9D56;"/><path d="   M36.69498,14.20447v16.40997c0,1.25-1.01001,2.26001-2.25,2.26001h-20.88c-1.25,0-2.25995-1.01001-2.25995-2.26001V14.20447   c0-1.25,1.00995-2.26001,2.25995-2.26001h20.88C35.68497,11.94446,36.69498,12.95447,36.69498,14.20447z" style="fill:none;stroke:#303030;stroke-width:0.7;stroke-linecap:round;stroke-linejoin:round;stroke-miterlimit:10;"/><path d="   M13.61913,34.77554c0.23,0.74,0.93,1.28,1.76,1.28h17.26c0.82,0,1.52-0.54,1.75-1.28" style="fill:none;stroke:#303030;stroke-width:0.7;stroke-linecap:round;stroke-linejoin:round;stroke-miterlimit:10;"/><line style="fill:none;stroke:#303030;stroke-width:0.7;stroke-linecap:round;stroke-linejoin:round;stroke-miterlimit:10;" x1="34.38913" x2="13.61913" y1="34.77554" y2="34.77554"/><polyline points="   15.88935,24.85709 15.88935,26.2674 15.88935,26.32833 16.80343,26.32833 18.06574,26.32833 32.11651,26.32833 28.89546,21.97555    32.11651,17.62277 20.24213,17.62277 18.06574,17.62277  " style="fill:none;stroke:#303030;stroke-width:0.7;stroke-linecap:round;stroke-linejoin:round;stroke-miterlimit:10;"/><polyline points="   15.88935,19.03307 15.88935,17.62277 16.80343,17.62277  " style="fill:none;stroke:#303030;stroke-width:0.7;stroke-linecap:round;stroke-linejoin:round;stroke-miterlimit:10;"/><polyline points="   18.06574,17.62277 15.88935,17.62277 15.88935,19.03307 18.44179,19.03307  " style="fill:none;stroke:#303030;stroke-width:0.7;stroke-linecap:round;stroke-linejoin:round;stroke-miterlimit:10;"/><line style="fill:none;stroke:#303030;stroke-width:0.7;stroke-linecap:round;stroke-linejoin:round;stroke-miterlimit:10;" x1="19.58787" x2="18.06574" y1="19.03307" y2="19.03307"/><line style="fill:none;stroke:#303030;stroke-width:0.7;stroke-linecap:round;stroke-linejoin:round;stroke-miterlimit:10;" x1="20.24213" x2="18.06574" y1="17.62277" y2="17.62277"/><line style="fill:none;stroke:#303030;stroke-width:0.7;stroke-linecap:round;stroke-linejoin:round;stroke-miterlimit:10;" x1="19.58787" x2="18.06574" y1="24.85709" y2="24.85709"/><polyline points="   18.68696,24.85709 15.88935,24.85709 15.88935,26.32833 16.80343,26.32833  " style="fill:none;stroke:#303030;stroke-width:0.7;stroke-linecap:round;stroke-linejoin:round;stroke-miterlimit:10;"/><line style="fill:none;stroke:#303030;stroke-width:0.7;stroke-linecap:round;stroke-linejoin:round;stroke-miterlimit:10;" x1="18.06574" x2="18.05776" y1="24.85709" y2="19.03307"/><line style="fill:none;stroke:#303030;stroke-width:0.7;stroke-linecap:round;stroke-linejoin:round;stroke-miterlimit:10;" x1="16.79545" x2="16.80343" y1="19.03307" y2="24.85709"/><line style="fill:none;stroke:#303030;stroke-width:0.7;stroke-linecap:round;stroke-linejoin:round;stroke-miterlimit:10;" x1="16.80498" x2="16.80498" y1="26.38896" y2="32.79897"/><line style="fill:none;stroke:#303030;stroke-width:0.7;stroke-linecap:round;stroke-linejoin:round;stroke-miterlimit:10;" x1="18.06498" x2="18.06498" y1="26.41447" y2="32.81446"/><path d="   M16.80343,17.62277v-1.11431c0-0.34822,0.27858-0.63551,0.6268-0.63551c0.35693,0,0.63551,0.28728,0.63551,0.63551v1.11431" style="fill:none;stroke:#303030;stroke-width:0.7;stroke-linecap:round;stroke-linejoin:round;stroke-miterlimit:10;"/><line style="fill:none;stroke:#303030;stroke-width:0.7;stroke-linecap:round;stroke-linejoin:round;stroke-miterlimit:10;" x1="19.58787" x2="19.58787" y1="24.85709" y2="19.03307"/></g></svg>