<?xml version="1.0" ?><svg style="enable-background:new 0 0 48 48;" version="1.1" viewBox="0 0 48 48" xml:space="preserve" xmlns="http://www.w3.org/2000/svg" xmlns:xlink="http://www.w3.org/1999/xlink"><g id="Icons"><g><path d="M27.50266,14.19905V13.9562c0-0.27951-0.13344-0.55279-0.38464-0.70492    c-1.39004-0.84182-4.94588-0.82241-6.24661,0.05296c-0.15359,0.10336-0.22487,0.28406-0.22487,0.4608v0.48773    c0,0.2641,0.1377,0.51583,0.38085,0.65085c0.22124,0.12285,0.49062,0.22618,0.79263,0.30819    c1.28437,0.35362,3.14162,0.35362,4.42599,0c0.37138-0.10064,0.69228-0.23028,0.93501-0.39127    C27.39284,14.68006,27.50266,14.44159,27.50266,14.19905z" style="fill:#CAE3EF;"/><path d="M26.44569,15.29496l-0.02108,5.92151c0,0.45,0.11,0.9,0.32,1.3l4.96,9.41    c0.71,1.34-0.48,3.44-2,3.44h-11.79c-1.52,0-2.27-2.1-1.56-3.44l5.02-9.52c0.17-0.33,0.26-0.69,0.26-1.06V15.4192" style="fill:#CAE3EF;"/><path d="M20.77108,23.55647c0,0,3.09165-1.01678,6.52,0l0.21159,0.56422c0,0-2.78177,1.47922-6.94616,0    L20.77108,23.55647z" style="fill:#F9C2E8;"/><path d="M20.55651,24.12069l-4.22008,7.79528c-0.84319,1.55754,0.28458,3.4505,2.05571,3.4505h11.36691    c1.78052,0,2.90737-1.91113,2.0455-3.46915l-4.30189-7.77663C27.50266,24.12069,24.90377,25.68226,20.55651,24.12069z" style="fill:#F29ED4;"/><path d="    M26.44569,15.29496l-0.02108,5.92151c0,0.45,0.11,0.9,0.32,1.3l4.96,9.41c0.71,1.34-0.48,3.44-2,3.44h-11.79    c-1.52,0-2.27-2.1-1.56-3.44l5.02-9.52c0.17-0.33,0.26-0.69,0.26-1.06V15.4192" style="fill:none;stroke:#303030;stroke-width:0.7;stroke-linecap:round;stroke-linejoin:round;stroke-miterlimit:10;"/><line style="fill:none;stroke:#303030;stroke-width:0.7;stroke-linecap:round;stroke-linejoin:round;stroke-miterlimit:10;" x1="16.3546" x2="21.3746" y1="31.92647" y2="22.40647"/><line style="fill:none;stroke:#303030;stroke-width:0.7;stroke-linecap:round;stroke-linejoin:round;stroke-miterlimit:10;" x1="19.91504" x2="21.23541" y1="29.09638" y2="26.59239"/><line style="fill:none;stroke:#303030;stroke-width:0.7;stroke-linecap:round;stroke-linejoin:round;stroke-miterlimit:10;" x1="18.73094" x2="19.27133" y1="31.34191" y2="30.31711"/><path d="    M22.16311,13.91687c0,0.56891,3.73298,0.56891,3.73298,0" style="fill:none;stroke:#303030;stroke-width:0.7;stroke-linecap:round;stroke-linejoin:round;stroke-miterlimit:10;"/><path d="    M20.55651,24.12069c0,0.80403,6.94616,0.80403,6.94616,0" style="fill:none;stroke:#303030;stroke-width:0.7;stroke-linecap:round;stroke-linejoin:round;stroke-miterlimit:10;"/><path d="    M20.77108,23.55647c0.68-0.62,5.83-0.62,6.52,0" style="fill:none;stroke:#303030;stroke-width:0.7;stroke-linecap:round;stroke-linejoin:round;stroke-miterlimit:10;"/><path d="    M27.50266,14.19905V13.9562c0-0.27951-0.13344-0.55279-0.38464-0.70492c-1.39004-0.84182-4.94588-0.73585-6.24661,0.13953    c-0.15359,0.10337-0.22487,0.29593-0.22487,0.47267v0.3893c0,0.2641,0.05515,0.4087,0.27472,0.57941    c0.21134,0.16431,0.59675,0.29762,0.89877,0.37963c1.28437,0.35362,3.14162,0.35362,4.42599,0    c0.37138-0.10064,0.69228-0.23028,0.93501-0.39127C27.39284,14.68006,27.50266,14.44159,27.50266,14.19905z" style="fill:none;stroke:#303030;stroke-width:0.7;stroke-linecap:round;stroke-linejoin:round;stroke-miterlimit:10;"/></g></g></svg>