<?xml version="1.0" ?><svg style="enable-background:new 0 0 48 48.00004;" version="1.1" viewBox="0 0 48 48.00004" xml:space="preserve" xmlns="http://www.w3.org/2000/svg" xmlns:xlink="http://www.w3.org/1999/xlink"><g id="Icons"><g><path d="M19.47709,36.53042L19.47709,36.53042c-0.44584,0.08447-0.87972-0.21119-0.96419-0.65702    L14.8064,16.31076c-0.08447-0.44583,0.21119-0.87972,0.65702-0.96419l0,0c0.44583-0.08447,0.87972,0.21119,0.96419,0.65702    l3.7065,19.56264C20.21858,36.01207,19.92292,36.44595,19.47709,36.53042z" style="fill:#F4F4F4;"/><ellipse cx="14.99511" cy="12.87485" rx="1.41938" ry="1.41938" style="fill:#F4F4F4;" transform="matrix(0.98252 -0.18616 0.18616 0.98252 -2.13462 3.01648)"/><path d="M34.35058,19.21517l-14.15148,9.25535c-0.09727,0.06362-0.22798,0.00802-0.24962-0.10618    l-2.40483-12.69255c-0.02164-0.1142,0.07967-0.21376,0.19348-0.19013l16.55631,3.43721    C34.43689,18.94843,34.47234,19.13554,34.35058,19.21517z" style="fill:#5F83CF;"/><path d="    M19.47709,36.53042L19.47709,36.53042c-0.44584,0.08447-0.87972-0.21119-0.96419-0.65702L14.8064,16.31076    c-0.08447-0.44583,0.21119-0.87972,0.65702-0.96419l0,0c0.44583-0.08447,0.87972,0.21119,0.96419,0.65702l3.7065,19.56264    C20.21858,36.01207,19.92292,36.44595,19.47709,36.53042z" style="fill:none;stroke:#303030;stroke-width:0.7;stroke-linecap:round;stroke-linejoin:round;stroke-miterlimit:10;"/><ellipse cx="14.99511" cy="12.87485" rx="1.41938" ry="1.41938" style="fill:none;stroke:#303030;stroke-width:0.7;stroke-linecap:round;stroke-linejoin:round;stroke-miterlimit:10;" transform="matrix(0.98252 -0.18616 0.18616 0.98252 -2.13462 3.01648)"/><path d="    M34.35058,19.21517l-14.15148,9.25535c-0.09727,0.06362-0.22798,0.00802-0.24962-0.10618l-2.40483-12.69255    c-0.02164-0.1142,0.07967-0.21376,0.19348-0.19013l16.55631,3.43721C34.43689,18.94843,34.47234,19.13554,34.35058,19.21517z" style="fill:none;stroke:#303030;stroke-width:0.7;stroke-linecap:round;stroke-linejoin:round;stroke-miterlimit:10;"/></g></g></svg>