<?xml version="1.0" ?><svg style="enable-background:new 0 0 48 48;" version="1.1" viewBox="0 0 48 48" xml:space="preserve" xmlns="http://www.w3.org/2000/svg" xmlns:xlink="http://www.w3.org/1999/xlink"><g id="Icons"><g><path d="M29.26862,12.41961v2.82996h-1.54999v-1.87h-7.44v1.87h-1.55005v-2.82996    c0-0.33002,0.27002-0.59003,0.60004-0.59003h9.34998C29.00861,11.82958,29.26862,12.08959,29.26862,12.41961z" style="fill:#F4F4F4;"/><path d="M33.035,15.245h0.01h1.4c1.24,0,2.25,1.01,2.25,2.26v16.41c0,1.25-1.01,2.26-2.25,2.26h-20.88    c-1.25,0-2.26-1.01-2.26-2.26v-16.41c0-1.25,1.01-2.26,2.26-2.26h1.39h1.69h14.71H33.035z" style="fill:#5F83CF;"/><path d="    M18.73,15.245v-2.82593c0-0.3281,0.26598-0.59407,0.59407-0.59407h9.35185c0.3281,0,0.59407,0.26598,0.59407,0.59407V15.245" style="fill:none;stroke:#303030;stroke-width:0.7;stroke-linecap:round;stroke-linejoin:round;stroke-miterlimit:10;"/><polyline points="    20.28,15.245 20.28,13.375 27.72,13.375 27.72,15.245   " style="fill:none;stroke:#303030;stroke-width:0.7;stroke-linecap:round;stroke-linejoin:round;stroke-miterlimit:10;"/><path d="    M33.035,15.245h0.01h1.4c1.24,0,2.25,1.01,2.25,2.26v16.41c0,1.25-1.01,2.26-2.25,2.26h-20.88c-1.25,0-2.26-1.01-2.26-2.26v-16.41    c0-1.25,1.01-2.26,2.26-2.26h1.39h1.69h14.71H33.035z" style="fill:none;stroke:#303030;stroke-width:0.7;stroke-linecap:round;stroke-linejoin:round;stroke-miterlimit:10;"/><line style="fill:none;stroke:#303030;stroke-width:0.7;stroke-linecap:round;stroke-linejoin:round;stroke-miterlimit:10;" x1="14.05215" x2="14.05215" y1="19.79" y2="26.0537"/><line style="fill:none;stroke:#303030;stroke-width:0.7;stroke-linecap:round;stroke-linejoin:round;stroke-miterlimit:10;" x1="14.05215" x2="14.05215" y1="28.11311" y2="29.48626"/></g></g></svg>