<?xml version="1.0" ?><svg style="enable-background:new 0 0 48 48;" version="1.1" viewBox="0 0 48 48" xml:space="preserve" xmlns="http://www.w3.org/2000/svg" xmlns:xlink="http://www.w3.org/1999/xlink"><g id="Icons"><g><path d="M13.56494,36.26465c-2.23877,0-4.05957-1.82129-4.05957-4.05957V15.79492    c0-2.23828,1.8208-4.05957,4.05957-4.05957h20.87988c2.2334,0,4.0498,1.82129,4.0498,4.05957v16.41016    c0,2.23828-1.81641,4.05957-4.0498,4.05957H13.56494z" style="fill:#FFFFFF;"/><path d="M33.04495,13.53509h1.4c1.24,0,2.25,1.01,2.25,2.26v16.41c0,1.25-1.01,2.26-2.25,2.26h-20.88    c-1.25,0-2.26-1.01-2.26-2.26v-16.41c0-1.25,1.01-2.26,2.26-2.26h1.39H33.04495z" style="fill:#7CCEF2;"/><path d="M20.37996,19.05053h1.05362c0.82061,0,1.47912,0.66864,1.47912,1.47912    c0,0.82061-0.65851,1.48925-1.47912,1.48925h-6.24067c-0.82061,0-1.47912-0.66864-1.47912-1.48925    c0-0.54707,0.2938-1.02323,0.73956-1.2765c-0.04052-0.20262-0.06079-0.40524-0.06079-0.61799    c0-1.66148,1.34742-3.0089,3.00889-3.0089s3.0089,1.34742,3.0089,3.0089C20.41035,18.77699,20.40022,18.91883,20.37996,19.05053z" style="fill:#FFFFFF;"/><path d="M36.69495,24.20353l-5.48665-3.6296L24,29.52363l-5.66596-3.98969l-7.02909,6.67116l0,0    c0,1.24817,1.01184,2.26,2.26,2.26h20.98142c1.18663,0,2.14858-0.96195,2.14858-2.14858V24.20353z" style="fill:#515765;"/><path d="    M13.56494,36.26465c-2.23877,0-4.05957-1.82129-4.05957-4.05957V15.79492c0-2.23828,1.8208-4.05957,4.05957-4.05957h20.87988    c2.2334,0,4.0498,1.82129,4.0498,4.05957v16.41016c0,2.23828-1.81641,4.05957-4.0498,4.05957H13.56494z" style="fill:none;stroke:#303030;stroke-width:0.7;stroke-linecap:round;stroke-linejoin:round;stroke-miterlimit:10;"/><path d="    M33.04495,13.53509h1.4c1.24,0,2.25,1.01,2.25,2.26v16.41c0,1.25-1.01,2.26-2.25,2.26h-20.88c-1.25,0-2.26-1.01-2.26-2.26v-16.41    c0-1.25,1.01-2.26,2.26-2.26h1.39H33.04495z" style="fill:none;stroke:#303030;stroke-width:0.7;stroke-linecap:round;stroke-linejoin:round;stroke-miterlimit:10;"/><polyline points="    36.61966,24.15373 31.2083,20.57393 24,29.52363 18.33404,25.53394 11.41193,32.10356   " style="fill:none;stroke:#303030;stroke-width:0.7;stroke-linecap:round;stroke-linejoin:round;stroke-miterlimit:10;"/><path d="    M20.37996,19.05053h1.05362c0.82061,0,1.47912,0.66864,1.47912,1.47912c0,0.82061-0.65851,1.48925-1.47912,1.48925h-6.24067    c-0.82061,0-1.47912-0.66864-1.47912-1.48925c0-0.54707,0.2938-1.02323,0.73956-1.2765    c-0.04052-0.20262-0.06079-0.40524-0.06079-0.61799c0-1.66148,1.34742-3.0089,3.00889-3.0089s3.0089,1.34742,3.0089,3.0089    C20.41035,18.77699,20.40022,18.91883,20.37996,19.05053z" style="fill:none;stroke:#303030;stroke-width:0.7;stroke-linecap:round;stroke-linejoin:round;stroke-miterlimit:10;"/></g></g></svg>