<?xml version="1.0" ?><svg style="enable-background:new 0 0 48 48;" version="1.1" viewBox="0 0 48 48" xml:space="preserve" xmlns="http://www.w3.org/2000/svg" xmlns:xlink="http://www.w3.org/1999/xlink"><g id="Icons"><g><g><path d="M35.52861,24.46959h-2.86005v11.98999c0,0.88-0.77997,1.59998-1.75,1.59998h-5.38995V30.9796     h-3.06v7.07996h-5.38c-0.97003,0-1.76001-0.71997-1.76001-1.59998V24.46959h-2.85004c-1.02997,0-1.60999-0.98004-0.97998-1.65002     L23.0186,10.3496c0.5-0.54004,1.46997-0.54004,1.95996,0l3.13,3.38995v-2.08997c0-0.59998,0.54004-1.09003,1.21002-1.09003     h2.15002c0.65997,0,1.19995,0.49005,1.19995,1.09003v7.01001l3.84003,4.15997     C37.12858,23.48955,36.54856,24.46959,35.52861,24.46959z" style="fill:#5F83CF;"/></g><g><path d="     M32.66806,24.47232v11.988c0,0.87894-0.78,1.59478-1.75,1.59478h-5.39" style="fill:none;stroke:#303030;stroke-width:0.7;stroke-linecap:round;stroke-linejoin:round;stroke-miterlimit:10;"/><path d="     M15.32806,24.47232v11.988c0,0.87894,0.79,1.59478,1.76,1.59478h5.38" style="fill:none;stroke:#303030;stroke-width:0.7;stroke-linecap:round;stroke-linejoin:round;stroke-miterlimit:10;"/><path d="     M15.32806,24.47232h-2.85c-1.03,0-1.61-0.97861-0.98-1.64914l11.52-12.4773c0.5-0.53461,1.47-0.53461,1.96,0l3.13,3.3889" style="fill:none;stroke:#303030;stroke-width:0.7;stroke-linecap:round;stroke-linejoin:round;stroke-miterlimit:10;"/><line style="fill:none;stroke:#303030;stroke-width:0.7;stroke-linecap:round;stroke-linejoin:round;stroke-miterlimit:10;" x1="17.69918" x2="22.27614" y1="18.8066" y2="13.84929"/><line style="fill:none;stroke:#303030;stroke-width:0.7;stroke-linecap:round;stroke-linejoin:round;stroke-miterlimit:10;" x1="14.60293" x2="15.88535" y1="22.16015" y2="20.77115"/><path d="     M32.66806,18.66407l3.84,4.1591c0.62,0.67053,0.04,1.64914-0.98,1.64914h-2.86" style="fill:none;stroke:#303030;stroke-width:0.7;stroke-linecap:round;stroke-linejoin:round;stroke-miterlimit:10;"/><path d="     M32.66806,18.66407v-7.01338c0-0.59804-0.54-1.08735-1.2-1.08735h-2.15c-0.67,0-1.21,0.48931-1.21,1.08735v2.08408" style="fill:none;stroke:#303030;stroke-width:0.7;stroke-linecap:round;stroke-linejoin:round;stroke-miterlimit:10;"/><polyline points="     22.46806,38.05509 22.46806,30.97509 25.52806,30.97509 25.52806,38.05509    " style="fill:none;stroke:#303030;stroke-width:0.7;stroke-linecap:round;stroke-linejoin:round;stroke-miterlimit:10;"/></g></g></g></svg>