<?xml version="1.0" ?><svg style="enable-background:new 0 0 48 48;" version="1.1" viewBox="0 0 48 48" xml:space="preserve" xmlns="http://www.w3.org/2000/svg" xmlns:xlink="http://www.w3.org/1999/xlink"><g id="Icons"><g><g><circle cx="13.36986" cy="17.28928" r="1.48298" style="fill:#5F83CF;"/><path d="M35.23505,18.26457H20.03611c-0.48494,0-0.87807-0.39312-0.87807-0.87806v-0.19445     c0-0.48494,0.39312-0.87807,0.87807-0.87807h15.19894c0.48494,0,0.87806,0.39312,0.87806,0.87807v0.19445     C36.11312,17.87145,35.71999,18.26457,35.23505,18.26457z" style="fill:#5F83CF;"/><circle cx="13.36986" cy="24" r="1.48298" style="fill:#5F83CF;"/><path d="M35.23505,24.97529H20.03611c-0.48494,0-0.87807-0.39312-0.87807-0.87807v-0.19445     c0-0.48494,0.39312-0.87807,0.87807-0.87807h15.19894c0.48494,0,0.87806,0.39312,0.87806,0.87807v0.19445     C36.11312,24.58217,35.71999,24.97529,35.23505,24.97529z" style="fill:#5F83CF;"/><circle cx="13.36986" cy="30.71072" r="1.48298" style="fill:#5F83CF;"/><path d="M35.23505,31.68601H20.03611c-0.48494,0-0.87807-0.39312-0.87807-0.87807v-0.19445     c0-0.48494,0.39312-0.87806,0.87807-0.87806h15.19894c0.48494,0,0.87806,0.39312,0.87806,0.87806v0.19445     C36.11312,31.29289,35.71999,31.68601,35.23505,31.68601z" style="fill:#5F83CF;"/></g><g><circle cx="13.36986" cy="17.28928" r="1.48298" style="fill:none;stroke:#303030;stroke-width:0.7;stroke-linecap:round;stroke-linejoin:round;stroke-miterlimit:10;"/><path d="     M35.23505,18.26457H20.03611c-0.48494,0-0.87807-0.39312-0.87807-0.87806v-0.19445c0-0.48494,0.39312-0.87807,0.87807-0.87807     h15.19894c0.48494,0,0.87806,0.39312,0.87806,0.87807v0.19445C36.11312,17.87145,35.71999,18.26457,35.23505,18.26457z" style="fill:none;stroke:#303030;stroke-width:0.7;stroke-linecap:round;stroke-linejoin:round;stroke-miterlimit:10;"/><circle cx="13.36986" cy="24" r="1.48298" style="fill:none;stroke:#303030;stroke-width:0.7;stroke-linecap:round;stroke-linejoin:round;stroke-miterlimit:10;"/><path d="     M35.23505,24.97529H20.03611c-0.48494,0-0.87807-0.39312-0.87807-0.87807v-0.19445c0-0.48494,0.39312-0.87807,0.87807-0.87807     h15.19894c0.48494,0,0.87806,0.39312,0.87806,0.87807v0.19445C36.11312,24.58217,35.71999,24.97529,35.23505,24.97529z" style="fill:none;stroke:#303030;stroke-width:0.7;stroke-linecap:round;stroke-linejoin:round;stroke-miterlimit:10;"/><circle cx="13.36986" cy="30.71072" r="1.48298" style="fill:none;stroke:#303030;stroke-width:0.7;stroke-linecap:round;stroke-linejoin:round;stroke-miterlimit:10;"/><path d="     M35.23505,31.68601H20.03611c-0.48494,0-0.87807-0.39312-0.87807-0.87807v-0.19445c0-0.48494,0.39312-0.87806,0.87807-0.87806     h15.19894c0.48494,0,0.87806,0.39312,0.87806,0.87806v0.19445C36.11312,31.29289,35.71999,31.68601,35.23505,31.68601z" style="fill:none;stroke:#303030;stroke-width:0.7;stroke-linecap:round;stroke-linejoin:round;stroke-miterlimit:10;"/></g></g></g></svg>