<?xml version="1.0" ?><svg style="enable-background:new 0 0 48 48;" version="1.1" viewBox="0 0 48 48" xml:space="preserve" xmlns="http://www.w3.org/2000/svg" xmlns:xlink="http://www.w3.org/1999/xlink"><g id="Icons"><g><linearGradient gradientUnits="userSpaceOnUse" id="SVGID_1_" x1="24" x2="24" y1="8.21214" y2="30.52167"><stop offset="0" style="stop-color:#F45368"/><stop offset="1" style="stop-color:#FFD872"/></linearGradient><circle cx="24" cy="24" r="12.244" style="fill:url(#SVGID_1_);"/><circle cx="24" cy="24" r="12.244" style="fill:none;stroke:#303030;stroke-width:0.7;stroke-linecap:round;stroke-linejoin:round;stroke-miterlimit:10;"/><path d="    M15.15215,24.5226c0,0,2.00649,1.63687,6.99631,1.58407" style="fill:none;stroke:#303030;stroke-width:0.7;stroke-linecap:round;stroke-linejoin:round;stroke-miterlimit:10;"/><path d="M19.50464,25.96163c0.17131,0.19669,0.27283,0.45049,0.27283,0.72332    c0,0.62815-0.50125,1.1294-1.12939,1.1294c-0.6218,0-1.1294-0.50125-1.1294-1.1294c0-0.41876,0.22842-0.78042,0.57104-0.97077    l0.47932,0.09953C18.56904,25.81371,19.43601,25.95249,19.50464,25.96163z" style="fill:#303030;"/><path d="    M32.84785,24.5226c0,0-2.00649,1.63687-6.99631,1.58407" style="fill:none;stroke:#303030;stroke-width:0.7;stroke-linecap:round;stroke-linejoin:round;stroke-miterlimit:10;"/><path d="M29.91028,25.71417c0.34262,0.19035,0.57104,0.55201,0.57104,0.97077    c0,0.62815-0.50759,1.1294-1.1294,1.1294c-0.62815,0-1.12939-0.50125-1.12939-1.1294c0-0.27283,0.10152-0.52663,0.27283-0.72332    L29.91028,25.71417z" style="fill:#303030;"/><ellipse cx="24.12855" cy="30.68728" rx="3.48496" ry="0.48842" style="fill:#303030;"/></g></g></svg>