<?xml version="1.0" ?><svg style="enable-background:new 0 0 48 48;" version="1.1" viewBox="0 0 48 48" xml:space="preserve" xmlns="http://www.w3.org/2000/svg" xmlns:xlink="http://www.w3.org/1999/xlink"><g id="Icons"><g><circle cx="24" cy="24" r="12.244" style="fill:#F45368;"/><path d="M18.24736,24.60994L24,30.36258l5.74645-5.75264l0.03715-0.03096    c0.79261-0.79261,1.18892-1.83292,1.18892-2.87322c0-1.0403-0.39631-2.08061-1.18892-2.87941    c-1.59142-1.58523-4.16122-1.58523-5.75264,0L24,18.86349l-0.03715-0.03715c-1.58523-1.58523-4.16122-1.58523-5.74645,0    c-0.79261,0.79881-1.18892,1.83911-1.18892,2.87941c0,1.04031,0.39631,2.08061,1.18892,2.87322L18.24736,24.60994L24,30.36258    l5.74645-5.75264" style="fill:#FFFFFF;"/><path d="    M18.24736,24.60994L24,30.36258l5.74645-5.75264l0.03715-0.03096c0.79261-0.79261,1.18892-1.83292,1.18892-2.87322    c0-1.0403-0.39631-2.08061-1.18892-2.87941c-1.59142-1.58523-4.16122-1.58523-5.75264,0L24,18.86349l-0.03715-0.03715    c-1.58523-1.58523-4.16122-1.58523-5.74645,0c-0.79261,0.79881-1.18892,1.83911-1.18892,2.87941    c0,1.04031,0.39631,2.08061,1.18892,2.87322L18.24736,24.60994L24,30.36258l5.74645-5.75264" style="fill:none;stroke:#303030;stroke-width:0.7;stroke-linecap:round;stroke-linejoin:round;stroke-miterlimit:10;"/><circle cx="24" cy="24" r="12.244" style="fill:none;stroke:#303030;stroke-width:0.7;stroke-linecap:round;stroke-linejoin:round;stroke-miterlimit:10;"/></g></g></svg>