<?xml version="1.0" ?><svg style="enable-background:new 0 0 48 48;" version="1.1" viewBox="0 0 48 48" xml:space="preserve" xmlns="http://www.w3.org/2000/svg" xmlns:xlink="http://www.w3.org/1999/xlink"><g id="Icons"><g><path d="M14.71,24.985l9.29,9.29l9.28-9.29l0.06-0.05c1.28-1.28,1.92-2.96,1.92-4.64s-0.64-3.36-1.92-4.65    c-2.57-2.56-6.72-2.56-9.29,0L24,15.705l-0.06-0.06c-2.56-2.56-6.72-2.56-9.28,0c-1.28,1.29-1.92,2.97-1.92,4.65    s0.64,3.36,1.92,4.64L14.71,24.985l9.29,9.29l9.28-9.29" style="fill:#5F83CF;"/><path d="    M14.71,24.985l9.29,9.29l9.28-9.29l0.06-0.05c1.28-1.28,1.92-2.96,1.92-4.64s-0.64-3.36-1.92-4.65c-2.57-2.56-6.72-2.56-9.29,0    L24,15.705l-0.06-0.06c-2.56-2.56-6.72-2.56-9.28,0c-1.28,1.29-1.92,2.97-1.92,4.65s0.64,3.36,1.92,4.64L14.71,24.985l9.29,9.29    l9.28-9.29" style="fill:none;stroke:#303030;stroke-width:0.7;stroke-linecap:round;stroke-linejoin:round;stroke-miterlimit:10;"/><path d="    M14.93961,21.44806c0.07287,0.37685,0.19099,0.74664,0.35437,1.10056" style="fill:none;stroke:#303030;stroke-width:0.7;stroke-linecap:round;stroke-linejoin:round;stroke-miterlimit:10;"/><path d="    M18.97965,15.75959c-0.9957,0.14154-1.95534,0.59475-2.7202,1.35961c-0.67962,0.68493-1.11318,1.51981-1.30067,2.39605" style="fill:none;stroke:#303030;stroke-width:0.7;stroke-linecap:round;stroke-linejoin:round;stroke-miterlimit:10;"/></g></g></svg>